<svg width="159pt" height="217pt"
 viewBox="0.00 0.00 159.00 217.00" xmlns="http://www.w3.org/2000/svg" xmlns:xlink="http://www.w3.org/1999/xlink">
<g id="graph0" class="graph" transform="scale(1 1) rotate(0) translate(4 212.5)">
<title>G</title>
<polygon fill="white" stroke="none" points="-4,4 -4,-212.5 155,-212.5 155,4 -4,4"/>
<!-- zeeguu -->
<g id="node1" class="node">
<title>zeeguu</title>
<polygon fill="#00b2ee" stroke="white" points="106.75,-208.5 47.25,-208.5 47.25,-172.5 106.75,-172.5 106.75,-208.5"/>
<text xml:space="preserve" text-anchor="middle" x="77" y="-185.82" font-family="Tahoma" font-size="14.00">zeeguu</text>
</g>
<!-- zeeguu&#45;&#45;zeeguu -->
<g id="edge1" class="edge">
<title>zeeguu&#45;&#45;zeeguu</title>
<path fill="none" stroke="#a0a0a0" stroke-width="10" d="M106.84,-198.59C116.79,-198.59 124.75,-195.89 124.75,-190.5 124.75,-185.11 116.79,-182.41 106.84,-182.41"/>
<text xml:space="preserve" text-anchor="middle" x="137.88" y="-186.22" font-family="Arial" font-size="12.00"> 215 </text>
</g>
<!-- tools -->
<g id="node2" class="node">
<title>tools</title>
<polygon fill="#00b2ee" stroke="white" points="54,-122.25 0,-122.25 0,-86.25 54,-86.25 54,-122.25"/>
<text xml:space="preserve" text-anchor="middle" x="27" y="-99.58" font-family="Tahoma" font-size="14.00">tools</text>
</g>
<!-- zeeguu&#45;&#45;tools -->
<g id="edge2" class="edge">
<title>zeeguu&#45;&#45;tools</title>
<path fill="none" stroke="#00688b" stroke-width="4" stroke-opacity="0.576471" d="M66.64,-172.04C58.06,-157.58 45.92,-137.14 37.35,-122.68"/>
<text xml:space="preserve" text-anchor="middle" x="64.74" y="-143.1" font-family="Arial" font-size="12.00"> 93 </text>
</g>
<!-- ROOT -->
<g id="node3" class="node">
<title>ROOT</title>
<polygon fill="#00b2ee" stroke="white" points="105,-36 51,-36 51,0 105,0 105,-36"/>
<text xml:space="preserve" text-anchor="middle" x="78" y="-13.32" font-family="Tahoma" font-size="14.00">ROOT</text>
</g>
<!-- zeeguu&#45;&#45;ROOT -->
<g id="edge4" class="edge">
<title>zeeguu&#45;&#45;ROOT</title>
<path fill="none" stroke="#00688b" stroke-opacity="0.298039" d="M85.01,-172.25C90.74,-158.92 97.96,-139.84 101,-122.25 103.73,-106.48 103.62,-102.03 101,-86.25 98.09,-68.72 91.17,-49.63 85.68,-36.29"/>
<text xml:space="preserve" text-anchor="middle" x="109.38" y="-99.97" font-family="Arial" font-size="12.00"> 3 </text>
</g>
<!-- tools&#45;&#45;tools -->
<g id="edge3" class="edge">
<title>tools&#45;&#45;tools</title>
<path fill="none" stroke="#a0a0a0" stroke-opacity="0.368627" d="M54.24,-112.33C64.02,-112.5 72,-109.81 72,-104.25 72,-98.69 64.02,-96 54.24,-96.17"/>
<text xml:space="preserve" text-anchor="middle" x="81.75" y="-99.97" font-family="Arial" font-size="12.00"> 26 </text>
</g>
<!-- tools&#45;&#45;ROOT -->
<g id="edge5" class="edge">
<title>tools&#45;&#45;ROOT</title>
<path fill="none" stroke="#00688b" stroke-opacity="0.298039" d="M37.57,-85.79C46.32,-71.33 58.7,-50.89 67.45,-36.43"/>
<text xml:space="preserve" text-anchor="middle" x="61.93" y="-56.85" font-family="Arial" font-size="12.00"> 3 </text>
</g>
</g>
</svg>
