<svg width="793pt" height="648pt"
 viewBox="0.00 0.00 793.00 648.00" xmlns="http://www.w3.org/2000/svg" xmlns:xlink="http://www.w3.org/1999/xlink">
<g id="graph0" class="graph" transform="scale(1 1) rotate(0) translate(4 643.75)">
<title>G</title>
<polygon fill="white" stroke="none" points="-4,4 -4,-643.75 789.38,-643.75 789.38,4 -4,4"/>
<!-- zeeguu/core -->
<g id="node1" class="node">
<title>zeeguu/core</title>
<polygon fill="#00b2ee" stroke="white" points="364.88,-553.5 273.12,-553.5 273.12,-517.5 364.88,-517.5 364.88,-553.5"/>
<text xml:space="preserve" text-anchor="middle" x="319" y="-530.83" font-family="Tahoma" font-size="14.00">zeeguu/core</text>
</g>
<!-- zeeguu/core&#45;&#45;zeeguu/core -->
<g id="edge1" class="edge">
<title>zeeguu/core&#45;&#45;zeeguu/core</title>
<path fill="none" stroke="#a0a0a0" stroke-width="10" d="M365.22,-543.37C375.44,-542.63 382.88,-540.01 382.88,-535.5 382.88,-530.99 375.44,-528.37 365.22,-527.63"/>
<text xml:space="preserve" text-anchor="middle" x="396" y="-531.23" font-family="Arial" font-size="12.00"> 242 </text>
</g>
<!-- tools/migrations -->
<g id="node3" class="node">
<title>tools/migrations</title>
<polygon fill="#00b2ee" stroke="white" points="554.38,-467.25 441.62,-467.25 441.62,-431.25 554.38,-431.25 554.38,-467.25"/>
<text xml:space="preserve" text-anchor="middle" x="498" y="-444.57" font-family="Tahoma" font-size="14.00">tools/migrations</text>
</g>
<!-- zeeguu/core&#45;&#45;tools/migrations -->
<g id="edge3" class="edge">
<title>zeeguu/core&#45;&#45;tools/migrations</title>
<path fill="none" stroke="#00688b" stroke-width="6" stroke-opacity="0.717647" d="M365.29,-523C385.14,-517.22 408.25,-509.33 428,-499.5 445.56,-490.76 463.62,-477.94 477,-467.57"/>
<text xml:space="preserve" text-anchor="middle" x="465.45" y="-488.1" font-family="Arial" font-size="12.00"> 149 </text>
</g>
<!-- ROOT -->
<g id="node6" class="node">
<title>ROOT</title>
<polygon fill="#00b2ee" stroke="white" points="529,-122.25 475,-122.25 475,-86.25 529,-86.25 529,-122.25"/>
<text xml:space="preserve" text-anchor="middle" x="502" y="-99.58" font-family="Tahoma" font-size="14.00">ROOT</text>
</g>
<!-- zeeguu/core&#45;&#45;ROOT -->
<g id="edge15" class="edge">
<title>zeeguu/core&#45;&#45;ROOT</title>
<path fill="none" stroke="#00688b" stroke-opacity="0.298039" d="M365.2,-531.22C449.8,-523.93 621,-502.71 621,-450.25 621,-450.25 621,-450.25 621,-275.75 621,-209.51 559.86,-150.63 525.23,-122.59"/>
<text xml:space="preserve" text-anchor="middle" x="627.38" y="-315.6" font-family="Arial" font-size="12.00"> 5 </text>
</g>
<!-- stanza_service -->
<g id="node8" class="node">
<title>stanza_service</title>
<polygon fill="#00b2ee" stroke="white" points="754.62,-467.25 649.38,-467.25 649.38,-431.25 754.62,-431.25 754.62,-467.25"/>
<text xml:space="preserve" text-anchor="middle" x="702" y="-444.57" font-family="Tahoma" font-size="14.00">stanza_service</text>
</g>
<!-- zeeguu/core&#45;&#45;stanza_service -->
<g id="edge19" class="edge">
<title>zeeguu/core&#45;&#45;stanza_service</title>
<path fill="none" stroke="#00688b" stroke-opacity="0.298039" d="M365.32,-532.32C440.86,-528.26 586.99,-518.24 635,-499.5 653.42,-492.31 671.32,-478.71 683.97,-467.62"/>
<text xml:space="preserve" text-anchor="middle" x="667.31" y="-488.1" font-family="Arial" font-size="12.00"> 3 </text>
</g>
<!-- zeeguu/api -->
<g id="node2" class="node">
<title>zeeguu/api</title>
<polygon fill="#00b2ee" stroke="white" points="238.38,-36 155.62,-36 155.62,0 238.38,0 238.38,-36"/>
<text xml:space="preserve" text-anchor="middle" x="197" y="-13.32" font-family="Tahoma" font-size="14.00">zeeguu/api</text>
</g>
<!-- zeeguu/api&#45;&#45;zeeguu/core -->
<g id="edge2" class="edge">
<title>zeeguu/api&#45;&#45;zeeguu/core</title>
<path fill="none" stroke="#00688b" stroke-width="9" stroke-opacity="0.929412" d="M155.34,-24.22C110.64,-32.42 46,-52.97 46,-103.25 46,-234.62 46,-234.62 46,-234.62 46,-358.86 109.17,-383.58 201,-467.25 223.92,-488.13 254.43,-505.31 278.68,-517.07"/>
<text xml:space="preserve" text-anchor="middle" x="65.06" y="-272.48" font-family="Arial" font-size="12.00"> 227 </text>
</g>
<!-- zeeguu/api&#45;&#45;zeeguu/api -->
<g id="edge4" class="edge">
<title>zeeguu/api&#45;&#45;zeeguu/api</title>
<path fill="none" stroke="#a0a0a0" stroke-width="4" stroke-opacity="0.576471" d="M238.62,-25.96C248.8,-25.37 256.38,-22.72 256.38,-18 256.38,-13.28 248.8,-10.63 238.62,-10.04"/>
<text xml:space="preserve" text-anchor="middle" x="269.12" y="-13.72" font-family="Arial" font-size="12.00"> 114 </text>
</g>
<!-- zeeguu/api&#45;&#45;tools/migrations -->
<g id="edge5" class="edge">
<title>zeeguu/api&#45;&#45;tools/migrations</title>
<path fill="none" stroke="#00688b" stroke-width="4" stroke-opacity="0.576471" d="M238.59,-20.07C322.43,-23.29 506.46,-36.05 538,-86.25 615.36,-209.35 586.22,-279.6 529,-413.25 526.25,-419.67 521.85,-425.72 517.22,-430.94"/>
<text xml:space="preserve" text-anchor="middle" x="597.7" y="-229.35" font-family="Arial" font-size="12.00"> 113 </text>
</g>
<!-- tools/migrations&#45;&#45;tools/migrations -->
<g id="edge6" class="edge">
<title>tools/migrations&#45;&#45;tools/migrations</title>
<path fill="none" stroke="#a0a0a0" stroke-opacity="0.368627" d="M554.75,-456.89C565.11,-455.92 572.38,-453.38 572.38,-449.25 572.38,-445.12 565.11,-442.58 554.75,-441.61"/>
<text xml:space="preserve" text-anchor="middle" x="582.12" y="-444.98" font-family="Arial" font-size="12.00"> 33 </text>
</g>
<!-- tools -->
<g id="node4" class="node">
<title>tools</title>
<polygon fill="#00b2ee" stroke="white" points="346,-381 292,-381 292,-345 346,-345 346,-381"/>
<text xml:space="preserve" text-anchor="middle" x="319" y="-358.32" font-family="Tahoma" font-size="14.00">tools</text>
</g>
<!-- tools/migrations&#45;&#45;tools -->
<g id="edge10" class="edge">
<title>tools/migrations&#45;&#45;tools</title>
<path fill="none" stroke="#00688b" stroke-opacity="0.298039" d="M460.91,-430.79C426.81,-414.74 377.04,-391.32 346.4,-376.9"/>
<text xml:space="preserve" text-anchor="middle" x="428.97" y="-401.85" font-family="Arial" font-size="12.00"> 10 </text>
</g>
<!-- tools/migrations&#45;&#45;ROOT -->
<g id="edge18" class="edge">
<title>tools/migrations&#45;&#45;ROOT</title>
<path fill="none" stroke="#00688b" stroke-opacity="0.298039" d="M508.28,-431.02C511.02,-425.53 513.61,-419.31 515,-413.25 516.42,-407.08 515.01,-405.33 515,-399 514.78,-284 533.13,-253.65 514,-140.25 513,-134.3 511.11,-128 509.13,-122.41"/>
<text xml:space="preserve" text-anchor="middle" x="528.51" y="-272.48" font-family="Arial" font-size="12.00"> 4 </text>
</g>
<!-- tools&#45;&#45;zeeguu/core -->
<g id="edge7" class="edge">
<title>tools&#45;&#45;zeeguu/core</title>
<path fill="none" stroke="#00688b" stroke-opacity="0.368627" d="M319,-381.33C319,-414.05 319,-484.53 319,-517.21"/>
<text xml:space="preserve" text-anchor="middle" x="328.75" y="-444.98" font-family="Arial" font-size="12.00"> 30 </text>
</g>
<!-- tools&#45;&#45;zeeguu/api -->
<g id="edge8" class="edge">
<title>tools&#45;&#45;zeeguu/api</title>
<path fill="none" stroke="#00688b" stroke-opacity="0.298039" d="M309.99,-344.76C290.11,-306.03 242.18,-208.75 216,-122.25 207.08,-92.77 201.66,-57.21 199,-36.45"/>
<text xml:space="preserve" text-anchor="middle" x="256.41" y="-186.22" font-family="Arial" font-size="12.00"> 16 </text>
</g>
<!-- tools&#45;&#45;tools -->
<g id="edge12" class="edge">
<title>tools&#45;&#45;tools</title>
<path fill="none" stroke="#a0a0a0" stroke-opacity="0.298039" d="M346.24,-371.08C356.02,-371.25 364,-368.56 364,-363 364,-357.44 356.02,-354.75 346.24,-354.92"/>
<text xml:space="preserve" text-anchor="middle" x="370.38" y="-358.73" font-family="Arial" font-size="12.00"> 8 </text>
</g>
<!-- tools&#45;&#45;ROOT -->
<g id="edge29" class="edge">
<title>tools&#45;&#45;ROOT</title>
<path fill="none" stroke="#00688b" stroke-opacity="0.298039" d="M346.44,-344.69C383.8,-319.55 449.8,-269.24 483,-208.5 498.04,-180.99 501.44,-143.84 502.06,-122.42"/>
<text xml:space="preserve" text-anchor="middle" x="477.2" y="-229.35" font-family="Arial" font-size="12.00"> 1 </text>
</g>
<!-- tools/crawler -->
<g id="node7" class="node">
<title>tools/crawler</title>
<polygon fill="#00b2ee" stroke="white" points="222.38,-294.75 127.62,-294.75 127.62,-258.75 222.38,-258.75 222.38,-294.75"/>
<text xml:space="preserve" text-anchor="middle" x="175" y="-272.07" font-family="Tahoma" font-size="14.00">tools/crawler</text>
</g>
<!-- tools&#45;&#45;tools/crawler -->
<g id="edge28" class="edge">
<title>tools&#45;&#45;tools/crawler</title>
<path fill="none" stroke="#00688b" stroke-opacity="0.298039" d="M291.7,-347.72C280.07,-341.51 266.41,-334.05 254.25,-327 236.6,-316.76 217.12,-304.66 201.9,-295.03"/>
<text xml:space="preserve" text-anchor="middle" x="260.62" y="-315.6" font-family="Arial" font-size="12.00"> 1 </text>
</g>
<!-- zeeguu/operations -->
<g id="node5" class="node">
<title>zeeguu/operations</title>
<polygon fill="#00b2ee" stroke="white" points="442.88,-208.5 315.12,-208.5 315.12,-172.5 442.88,-172.5 442.88,-208.5"/>
<text xml:space="preserve" text-anchor="middle" x="379" y="-185.82" font-family="Tahoma" font-size="14.00">zeeguu/operations</text>
</g>
<!-- zeeguu/operations&#45;&#45;zeeguu/core -->
<g id="edge9" class="edge">
<title>zeeguu/operations&#45;&#45;zeeguu/core</title>
<path fill="none" stroke="#00688b" stroke-opacity="0.298039" d="M382.42,-208.98C388.41,-242.68 398.98,-318.8 386,-381 375.07,-433.37 345.24,-489.76 329.32,-517.33"/>
<text xml:space="preserve" text-anchor="middle" x="400.63" y="-358.73" font-family="Arial" font-size="12.00"> 10 </text>
</g>
<!-- zeeguu/operations&#45;&#45;zeeguu/api -->
<g id="edge13" class="edge">
<title>zeeguu/operations&#45;&#45;zeeguu/api</title>
<path fill="none" stroke="#00688b" stroke-opacity="0.298039" d="M386.75,-172.37C395.43,-150.32 406.09,-111.8 388,-86.25 354.28,-38.62 283.98,-24.49 238.72,-20.43"/>
<text xml:space="preserve" text-anchor="middle" x="404.25" y="-99.97" font-family="Arial" font-size="12.00"> 7 </text>
</g>
<!-- zeeguu/operations&#45;&#45;tools/migrations -->
<g id="edge21" class="edge">
<title>zeeguu/operations&#45;&#45;tools/migrations</title>
<path fill="none" stroke="#00688b" stroke-opacity="0.298039" d="M433.82,-208.91C441.88,-213.52 449.35,-219.3 455,-226.5 503.78,-288.66 502.41,-390.35 499.62,-430.83"/>
<text xml:space="preserve" text-anchor="middle" x="501.19" y="-315.6" font-family="Arial" font-size="12.00"> 3 </text>
</g>
<!-- zeeguu/operations&#45;&#45;tools -->
<g id="edge17" class="edge">
<title>zeeguu/operations&#45;&#45;tools</title>
<path fill="none" stroke="#00688b" stroke-opacity="0.298039" d="M373.48,-208.71C365.13,-234.55 348.58,-284.82 333,-327 330.87,-332.77 328.41,-339.02 326.16,-344.62"/>
<text xml:space="preserve" text-anchor="middle" x="363.12" y="-272.48" font-family="Arial" font-size="12.00"> 5 </text>
</g>
<!-- zeeguu/operations&#45;&#45;zeeguu/operations -->
<g id="edge11" class="edge">
<title>zeeguu/operations&#45;&#45;zeeguu/operations</title>
<path fill="none" stroke="#a0a0a0" stroke-opacity="0.298039" d="M443.19,-197.98C453.67,-196.91 460.88,-194.42 460.88,-190.5 460.88,-186.58 453.67,-184.09 443.19,-183.02"/>
<text xml:space="preserve" text-anchor="middle" x="467.25" y="-186.22" font-family="Arial" font-size="12.00"> 8 </text>
</g>
<!-- zeeguu/operations&#45;&#45;ROOT -->
<g id="edge20" class="edge">
<title>zeeguu/operations&#45;&#45;ROOT</title>
<path fill="none" stroke="#00688b" stroke-opacity="0.298039" d="M404.49,-172.04C425.6,-157.58 455.45,-137.14 476.55,-122.68"/>
<text xml:space="preserve" text-anchor="middle" x="454.24" y="-143.1" font-family="Arial" font-size="12.00"> 3 </text>
</g>
<!-- tools/report_generator -->
<g id="node9" class="node">
<title>tools/report_generator</title>
<polygon fill="#00b2ee" stroke="white" points="379,-122.25 225,-122.25 225,-86.25 379,-86.25 379,-122.25"/>
<text xml:space="preserve" text-anchor="middle" x="302" y="-99.58" font-family="Tahoma" font-size="14.00">tools/report_generator</text>
</g>
<!-- zeeguu/operations&#45;&#45;tools/report_generator -->
<g id="edge25" class="edge">
<title>zeeguu/operations&#45;&#45;tools/report_generator</title>
<path fill="none" stroke="#00688b" stroke-opacity="0.298039" d="M363.05,-172.04C349.83,-157.58 331.14,-137.14 317.93,-122.68"/>
<text xml:space="preserve" text-anchor="middle" x="351.49" y="-143.1" font-family="Arial" font-size="12.00"> 2 </text>
</g>
<!-- ROOT&#45;&#45;zeeguu/api -->
<g id="edge14" class="edge">
<title>ROOT&#45;&#45;zeeguu/api</title>
<path fill="none" stroke="#00688b" stroke-opacity="0.298039" d="M481.69,-85.91C467.76,-74.98 448.37,-61.55 429,-54 365.62,-29.3 286.2,-21.93 238.64,-19.79"/>
<text xml:space="preserve" text-anchor="middle" x="461.14" y="-56.85" font-family="Arial" font-size="12.00"> 5 </text>
</g>
<!-- tools/crawler&#45;&#45;zeeguu/core -->
<g id="edge16" class="edge">
<title>tools/crawler&#45;&#45;zeeguu/core</title>
<path fill="none" stroke="#00688b" stroke-opacity="0.298039" d="M184.63,-294.92C210.81,-341.6 283.1,-470.48 309.33,-517.26"/>
<text xml:space="preserve" text-anchor="middle" x="256.7" y="-401.85" font-family="Arial" font-size="12.00"> 5 </text>
</g>
<!-- tools/crawler&#45;&#45;zeeguu/api -->
<g id="edge32" class="edge">
<title>tools/crawler&#45;&#45;zeeguu/api</title>
<path fill="none" stroke="#00688b" stroke-opacity="0.298039" d="M173.01,-258.39C169.24,-220.49 163.07,-127.83 183,-54 184.6,-48.06 186.92,-41.76 189.2,-36.17"/>
<text xml:space="preserve" text-anchor="middle" x="176.44" y="-143.1" font-family="Arial" font-size="12.00"> 1 </text>
</g>
<!-- tools/crawler&#45;&#45;zeeguu/operations -->
<g id="edge23" class="edge">
<title>tools/crawler&#45;&#45;zeeguu/operations</title>
<path fill="none" stroke="#00688b" stroke-opacity="0.298039" d="M222.77,-267.2C248.47,-261.59 280.27,-252.99 307,-240.75 325.31,-232.36 344.03,-219.4 357.79,-208.87"/>
<text xml:space="preserve" text-anchor="middle" x="338.48" y="-229.35" font-family="Arial" font-size="12.00"> 3 </text>
</g>
<!-- tools/crawler&#45;&#45;tools/crawler -->
<g id="edge22" class="edge">
<title>tools/crawler&#45;&#45;tools/crawler</title>
<path fill="none" stroke="#a0a0a0" stroke-opacity="0.298039" d="M222.6,-284.6C232.9,-283.83 240.38,-281.21 240.38,-276.75 240.38,-272.29 232.9,-269.67 222.6,-268.9"/>
<text xml:space="preserve" text-anchor="middle" x="246.75" y="-272.48" font-family="Arial" font-size="12.00"> 3 </text>
</g>
<!-- stanza_service&#45;&#45;stanza_service -->
<g id="edge24" class="edge">
<title>stanza_service&#45;&#45;stanza_service</title>
<path fill="none" stroke="#a0a0a0" stroke-opacity="0.298039" d="M754.98,-456.98C765.3,-456.08 772.62,-453.5 772.62,-449.25 772.62,-445 765.3,-442.42 754.98,-441.52"/>
<text xml:space="preserve" text-anchor="middle" x="779" y="-444.98" font-family="Arial" font-size="12.00"> 2 </text>
</g>
<!-- tools/report_generator&#45;&#45;zeeguu/core -->
<g id="edge30" class="edge">
<title>tools/report_generator&#45;&#45;zeeguu/core</title>
<path fill="none" stroke="#00688b" stroke-opacity="0.298039" d="M260.58,-122.72C198.37,-151.87 90.93,-215.17 119,-294.75 154.16,-394.43 251.8,-481.36 296.33,-517.13"/>
<text xml:space="preserve" text-anchor="middle" x="138.56" y="-315.6" font-family="Arial" font-size="12.00"> 1 </text>
</g>
<!-- tools/report_generator&#45;&#45;tools -->
<g id="edge26" class="edge">
<title>tools/report_generator&#45;&#45;tools</title>
<path fill="none" stroke="#00688b" stroke-opacity="0.298039" d="M298.15,-122.41C292.9,-148.18 284.75,-198.37 290.25,-240.75 291.31,-248.96 293.01,-250.72 295,-258.75 302.49,-288.94 310.55,-324.26 315.16,-344.79"/>
<text xml:space="preserve" text-anchor="middle" x="296.62" y="-229.35" font-family="Arial" font-size="12.00"> 2 </text>
</g>
<!-- zeeguu/logging -->
<g id="node10" class="node">
<title>zeeguu/logging</title>
<polygon fill="#00b2ee" stroke="white" points="121.12,-639.75 12.88,-639.75 12.88,-603.75 121.12,-603.75 121.12,-639.75"/>
<text xml:space="preserve" text-anchor="middle" x="67" y="-617.08" font-family="Tahoma" font-size="14.00">zeeguu/logging</text>
</g>
<!-- zeeguu/logging&#45;&#45;zeeguu/core -->
<g id="edge27" class="edge">
<title>zeeguu/logging&#45;&#45;zeeguu/core</title>
<path fill="none" stroke="#00688b" stroke-opacity="0.298039" d="M119.21,-603.29C164.48,-588.16 229.37,-566.47 272.78,-551.95"/>
<text xml:space="preserve" text-anchor="middle" x="214.46" y="-574.35" font-family="Arial" font-size="12.00"> 1 </text>
</g>
<!-- zeeguu/logging&#45;&#45;zeeguu/api -->
<g id="edge36" class="edge">
<title>zeeguu/logging&#45;&#45;zeeguu/api</title>
<path fill="none" stroke="#00688b" stroke-opacity="0.298039" d="M41.67,-603.49C22.7,-588.32 0,-564.35 0,-536.5 0,-536.5 0,-536.5 0,-103.25 0,-36.29 97.39,-21.84 155.22,-19.16"/>
<text xml:space="preserve" text-anchor="middle" x="6.38" y="-315.6" font-family="Arial" font-size="12.00"> 1 </text>
</g>
<!-- zeeguu/logging&#45;&#45;tools -->
<g id="edge35" class="edge">
<title>zeeguu/logging&#45;&#45;tools</title>
<path fill="none" stroke="#00688b" stroke-opacity="0.298039" d="M66.84,-603.62C67.43,-576.1 72.1,-521.46 98.25,-485.25 146.76,-418.07 244.41,-383.91 291.87,-370.7"/>
<text xml:space="preserve" text-anchor="middle" x="104.62" y="-488.1" font-family="Arial" font-size="12.00"> 1 </text>
</g>
<!-- zeeguu/logging&#45;&#45;tools/crawler -->
<g id="edge31" class="edge">
<title>zeeguu/logging&#45;&#45;tools/crawler</title>
<path fill="none" stroke="#00688b" stroke-opacity="0.298039" d="M65.12,-603.36C63.36,-582.65 61.81,-547.16 68,-517.5 86.47,-428.93 140.63,-333.57 164.03,-295.2"/>
<text xml:space="preserve" text-anchor="middle" x="100.75" y="-444.98" font-family="Arial" font-size="12.00"> 1 </text>
</g>
<!-- tools/one_time -->
<g id="node11" class="node">
<title>tools/one_time</title>
<polygon fill="#00b2ee" stroke="white" points="372.38,-639.75 265.62,-639.75 265.62,-603.75 372.38,-603.75 372.38,-639.75"/>
<text xml:space="preserve" text-anchor="middle" x="319" y="-617.08" font-family="Tahoma" font-size="14.00">tools/one_time</text>
</g>
<!-- tools/one_time&#45;&#45;zeeguu/core -->
<g id="edge33" class="edge">
<title>tools/one_time&#45;&#45;zeeguu/core</title>
<path fill="none" stroke="#00688b" stroke-opacity="0.298039" d="M319,-603.29C319,-588.83 319,-568.39 319,-553.93"/>
<text xml:space="preserve" text-anchor="middle" x="325.38" y="-574.35" font-family="Arial" font-size="12.00"> 1 </text>
</g>
<!-- tools/one_time&#45;&#45;tools/one_time -->
<g id="edge34" class="edge">
<title>tools/one_time&#45;&#45;tools/one_time</title>
<path fill="none" stroke="#a0a0a0" stroke-opacity="0.298039" d="M372.85,-629.45C383.11,-628.53 390.38,-625.96 390.38,-621.75 390.38,-617.54 383.11,-614.97 372.85,-614.05"/>
<text xml:space="preserve" text-anchor="middle" x="396.75" y="-617.48" font-family="Arial" font-size="12.00"> 1 </text>
</g>
</g>
</svg>
