<svg width="105pt" height="130pt"
 viewBox="0.00 0.00 105.00 130.00" xmlns="http://www.w3.org/2000/svg" xmlns:xlink="http://www.w3.org/1999/xlink">
<g id="graph0" class="graph" transform="scale(1 1) rotate(0) translate(4 126.25)">
<title>G</title>
<polygon fill="white" stroke="none" points="-4,4 -4,-126.25 101,-126.25 101,4 -4,4"/>
<!-- zeeguu -->
<g id="node1" class="node">
<title>zeeguu</title>
<polygon fill="#00b2ee" stroke="white" points="59.5,-122.25 0,-122.25 0,-86.25 59.5,-86.25 59.5,-122.25"/>
<text xml:space="preserve" text-anchor="middle" x="29.75" y="-99.58" font-family="Tahoma" font-size="14.00">zeeguu</text>
</g>
<!-- zeeguu&#45;&#45;zeeguu -->
<g id="edge1" class="edge">
<title>zeeguu&#45;&#45;zeeguu</title>
<path fill="none" stroke="#a0a0a0" stroke-width="10" d="M59.59,-112.34C69.54,-112.34 77.5,-109.64 77.5,-104.25 77.5,-98.86 69.54,-96.16 59.59,-96.16"/>
<text xml:space="preserve" text-anchor="middle" x="87.25" y="-99.97" font-family="Arial" font-size="12.00"> 57 </text>
</g>
<!-- tools -->
<g id="node2" class="node">
<title>tools</title>
<polygon fill="#00b2ee" stroke="white" points="56.75,-36 2.75,-36 2.75,0 56.75,0 56.75,-36"/>
<text xml:space="preserve" text-anchor="middle" x="29.75" y="-13.32" font-family="Tahoma" font-size="14.00">tools</text>
</g>
<!-- zeeguu&#45;&#45;tools -->
<g id="edge2" class="edge">
<title>zeeguu&#45;&#45;tools</title>
<path fill="none" stroke="#00688b" stroke-width="5" stroke-opacity="0.647059" d="M29.75,-85.79C29.75,-71.33 29.75,-50.89 29.75,-36.43"/>
<text xml:space="preserve" text-anchor="middle" x="39.5" y="-56.85" font-family="Arial" font-size="12.00"> 32 </text>
</g>
<!-- tools&#45;&#45;tools -->
<g id="edge3" class="edge">
<title>tools&#45;&#45;tools</title>
<path fill="none" stroke="#a0a0a0" stroke-width="2" stroke-opacity="0.439216" d="M56.99,-26.08C66.77,-26.25 74.75,-23.56 74.75,-18 74.75,-12.44 66.77,-9.75 56.99,-9.92"/>
<text xml:space="preserve" text-anchor="middle" x="84.5" y="-13.72" font-family="Arial" font-size="12.00"> 14 </text>
</g>
</g>
</svg>
