<svg width="3404pt" height="648pt"
 viewBox="0.00 0.00 3404.00 648.00" xmlns="http://www.w3.org/2000/svg" xmlns:xlink="http://www.w3.org/1999/xlink">
<g id="graph0" class="graph" transform="scale(1 1) rotate(0) translate(4 643.75)">
<title>G</title>
<polygon fill="white" stroke="none" points="-4,4 -4,-643.75 3400.12,-643.75 3400.12,4 -4,4"/>
<!-- [zeeguu/api/endpoints/audio_lessons.py] -->
<g id="node1" class="node">
<title>[zeeguu/api/endpoints/audio_lessons.py]</title>
<polygon fill="#00b2ee" stroke="white" points="585,-467.25 320,-467.25 320,-431.25 585,-431.25 585,-467.25"/>
<text xml:space="preserve" text-anchor="middle" x="452.5" y="-444.57" font-family="Tahoma" font-size="14.00">[zeeguu/api/endpoints/audio_lessons.py]</text>
</g>
<!-- [zeeguu/core/audio_lessons/daily_lesson_generator.py] -->
<g id="node2" class="node">
<title>[zeeguu/core/audio_lessons/daily_lesson_generator.py]</title>
<polygon fill="#00b2ee" stroke="white" points="952.88,-294.75 600.12,-294.75 600.12,-258.75 952.88,-258.75 952.88,-294.75"/>
<text xml:space="preserve" text-anchor="middle" x="776.5" y="-272.07" font-family="Tahoma" font-size="14.00">[zeeguu/core/audio_lessons/daily_lesson_generator.py]</text>
</g>
<!-- [zeeguu/api/endpoints/audio_lessons.py]&#45;&#45;[zeeguu/core/audio_lessons/daily_lesson_generator.py] -->
<g id="edge1" class="edge">
<title>[zeeguu/api/endpoints/audio_lessons.py]&#45;&#45;[zeeguu/core/audio_lessons/daily_lesson_generator.py]</title>
<path fill="none" stroke="#00688b" stroke-width="10" d="M319.58,-442.55C213.57,-433.25 91.62,-408.86 149,-345 178.82,-311.82 424.7,-293.63 599.64,-284.8"/>
<text xml:space="preserve" text-anchor="middle" x="158.75" y="-358.73" font-family="Arial" font-size="12.00"> 28 </text>
</g>
<!-- [zeeguu/core/model/daily_audio_lesson.py] -->
<g id="node12" class="node">
<title>[zeeguu/core/model/daily_audio_lesson.py]</title>
<polygon fill="#00b2ee" stroke="white" points="791.62,-381 509.38,-381 509.38,-345 791.62,-345 791.62,-381"/>
<text xml:space="preserve" text-anchor="middle" x="650.5" y="-358.32" font-family="Tahoma" font-size="14.00">[zeeguu/core/model/daily_audio_lesson.py]</text>
</g>
<!-- [zeeguu/api/endpoints/audio_lessons.py]&#45;&#45;[zeeguu/core/model/daily_audio_lesson.py] -->
<g id="edge28" class="edge">
<title>[zeeguu/api/endpoints/audio_lessons.py]&#45;&#45;[zeeguu/core/model/daily_audio_lesson.py]</title>
<path fill="none" stroke="#00688b" stroke-width="5" stroke-opacity="0.647059" d="M493.53,-430.79C527.51,-416.33 575.56,-395.89 609.53,-381.43"/>
<text xml:space="preserve" text-anchor="middle" x="573.1" y="-401.85" font-family="Arial" font-size="12.00"> 15 </text>
</g>
<!-- [zeeguu/core/model/friend_request.py] -->
<g id="node3" class="node">
<title>[zeeguu/core/model/friend_request.py]</title>
<polygon fill="#00b2ee" stroke="white" points="2718.25,-467.25 2460.75,-467.25 2460.75,-431.25 2718.25,-431.25 2718.25,-467.25"/>
<text xml:space="preserve" text-anchor="middle" x="2589.5" y="-444.57" font-family="Tahoma" font-size="14.00">[zeeguu/core/model/friend_request.py]</text>
</g>
<!-- [zeeguu/api/endpoints/friends.py] -->
<g id="node4" class="node">
<title>[zeeguu/api/endpoints/friends.py]</title>
<polygon fill="#00b2ee" stroke="white" points="2944.62,-381 2722.38,-381 2722.38,-345 2944.62,-345 2944.62,-381"/>
<text xml:space="preserve" text-anchor="middle" x="2833.5" y="-358.32" font-family="Tahoma" font-size="14.00">[zeeguu/api/endpoints/friends.py]</text>
</g>
<!-- [zeeguu/core/model/friend_request.py]&#45;&#45;[zeeguu/api/endpoints/friends.py] -->
<g id="edge2" class="edge">
<title>[zeeguu/core/model/friend_request.py]&#45;&#45;[zeeguu/api/endpoints/friends.py]</title>
<path fill="none" stroke="#00688b" stroke-width="9" stroke-opacity="0.929412" d="M2640.06,-430.79C2681.93,-416.33 2741.15,-395.89 2783.01,-381.43"/>
<text xml:space="preserve" text-anchor="middle" x="2735.86" y="-401.85" font-family="Arial" font-size="12.00"> 27 </text>
</g>
<!-- [tools/migrations/26&#45;02&#45;24&#45;friendship_system.sql] -->
<g id="node10" class="node">
<title>[tools/migrations/26&#45;02&#45;24&#45;friendship_system.sql]</title>
<polygon fill="#00b2ee" stroke="white" points="2749.38,-294.75 2429.62,-294.75 2429.62,-258.75 2749.38,-258.75 2749.38,-294.75"/>
<text xml:space="preserve" text-anchor="middle" x="2589.5" y="-272.07" font-family="Tahoma" font-size="14.00">[tools/migrations/26&#45;02&#45;24&#45;friendship_system.sql]</text>
</g>
<!-- [zeeguu/core/model/friend_request.py]&#45;&#45;[tools/migrations/26&#45;02&#45;24&#45;friendship_system.sql] -->
<g id="edge15" class="edge">
<title>[zeeguu/core/model/friend_request.py]&#45;&#45;[tools/migrations/26&#45;02&#45;24&#45;friendship_system.sql]</title>
<path fill="none" stroke="#00688b" stroke-width="7" stroke-opacity="0.788235" d="M2589.5,-430.96C2589.5,-398.28 2589.5,-327.8 2589.5,-295.08"/>
<text xml:space="preserve" text-anchor="middle" x="2599.25" y="-358.73" font-family="Arial" font-size="12.00"> 20 </text>
</g>
<!-- [zeeguu/core/model/user.py] -->
<g id="node6" class="node">
<title>[zeeguu/core/model/user.py]</title>
<polygon fill="#00b2ee" stroke="white" points="2251,-208.5 2058,-208.5 2058,-172.5 2251,-172.5 2251,-208.5"/>
<text xml:space="preserve" text-anchor="middle" x="2154.5" y="-185.82" font-family="Tahoma" font-size="14.00">[zeeguu/core/model/user.py]</text>
</g>
<!-- [zeeguu/api/endpoints/friends.py]&#45;&#45;[zeeguu/core/model/user.py] -->
<g id="edge17" class="edge">
<title>[zeeguu/api/endpoints/friends.py]&#45;&#45;[zeeguu/core/model/user.py]</title>
<path fill="none" stroke="#00688b" stroke-width="6" stroke-opacity="0.717647" d="M2823.22,-344.52C2807.16,-317.85 2776.12,-269 2758.5,-258.75 2715.69,-233.85 2410.8,-209.3 2251.27,-197.98"/>
<text xml:space="preserve" text-anchor="middle" x="2799.7" y="-272.48" font-family="Arial" font-size="12.00"> 19 </text>
</g>
<!-- [zeeguu/api/endpoints/daily_streak.py] -->
<g id="node7" class="node">
<title>[zeeguu/api/endpoints/daily_streak.py]</title>
<polygon fill="#00b2ee" stroke="white" points="3076.38,-294.75 2822.62,-294.75 2822.62,-258.75 3076.38,-258.75 3076.38,-294.75"/>
<text xml:space="preserve" text-anchor="middle" x="2949.5" y="-272.07" font-family="Tahoma" font-size="14.00">[zeeguu/api/endpoints/daily_streak.py]</text>
</g>
<!-- [zeeguu/api/endpoints/friends.py]&#45;&#45;[zeeguu/api/endpoints/daily_streak.py] -->
<g id="edge19" class="edge">
<title>[zeeguu/api/endpoints/friends.py]&#45;&#45;[zeeguu/api/endpoints/daily_streak.py]</title>
<path fill="none" stroke="#00688b" stroke-width="6" stroke-opacity="0.717647" d="M2857.54,-344.54C2877.44,-330.08 2905.6,-309.64 2925.5,-295.18"/>
<text xml:space="preserve" text-anchor="middle" x="2908.2" y="-315.6" font-family="Arial" font-size="12.00"> 18 </text>
</g>
<!-- [zeeguu/api/endpoints/user.py] -->
<g id="node8" class="node">
<title>[zeeguu/api/endpoints/user.py]</title>
<polygon fill="#00b2ee" stroke="white" points="2562,-122.25 2357,-122.25 2357,-86.25 2562,-86.25 2562,-122.25"/>
<text xml:space="preserve" text-anchor="middle" x="2459.5" y="-99.58" font-family="Tahoma" font-size="14.00">[zeeguu/api/endpoints/user.py]</text>
</g>
<!-- [zeeguu/api/endpoints/friends.py]&#45;&#45;[zeeguu/api/endpoints/user.py] -->
<g id="edge12" class="edge">
<title>[zeeguu/api/endpoints/friends.py]&#45;&#45;[zeeguu/api/endpoints/user.py]</title>
<path fill="none" stroke="#00688b" stroke-width="7" stroke-opacity="0.788235" d="M2945.08,-353.98C3030.1,-343.16 3126.2,-317.84 3085.5,-258.75 3026.63,-173.27 2724.39,-131.07 2562.38,-114.31"/>
<text xml:space="preserve" text-anchor="middle" x="3078.25" y="-229.35" font-family="Arial" font-size="12.00"> 20 </text>
</g>
<!-- [zeeguu/api/endpoints/friends.py]&#45;&#45;[tools/migrations/26&#45;02&#45;24&#45;friendship_system.sql] -->
<g id="edge7" class="edge">
<title>[zeeguu/api/endpoints/friends.py]&#45;&#45;[tools/migrations/26&#45;02&#45;24&#45;friendship_system.sql]</title>
<path fill="none" stroke="#00688b" stroke-width="8" stroke-opacity="0.858824" d="M2782.94,-344.54C2741.07,-330.08 2681.85,-309.64 2639.99,-295.18"/>
<text xml:space="preserve" text-anchor="middle" x="2735.86" y="-315.6" font-family="Arial" font-size="12.00"> 23 </text>
</g>
<!-- [zeeguu/api/endpoints/badges.py] -->
<g id="node14" class="node">
<title>[zeeguu/api/endpoints/badges.py]</title>
<polygon fill="#00b2ee" stroke="white" points="2266.75,-36 2042.25,-36 2042.25,0 2266.75,0 2266.75,-36"/>
<text xml:space="preserve" text-anchor="middle" x="2154.5" y="-13.32" font-family="Tahoma" font-size="14.00">[zeeguu/api/endpoints/badges.py]</text>
</g>
<!-- [zeeguu/api/endpoints/friends.py]&#45;&#45;[zeeguu/api/endpoints/badges.py] -->
<g id="edge20" class="edge">
<title>[zeeguu/api/endpoints/friends.py]&#45;&#45;[zeeguu/api/endpoints/badges.py]</title>
<path fill="none" stroke="#00688b" stroke-width="6" stroke-opacity="0.717647" d="M2944.88,-352.43C2999.47,-346.53 3058.71,-337.99 3083.5,-327 3114.73,-313.16 3142.5,-311.91 3142.5,-277.75 3142.5,-277.75 3142.5,-277.75 3142.5,-103.25 3142.5,-59.73 2525.83,-32.39 2266.87,-22.83"/>
<text xml:space="preserve" text-anchor="middle" x="3152.25" y="-186.22" font-family="Arial" font-size="12.00"> 18 </text>
</g>
<!-- [zeeguu/core/account_management/user_account_creation.py] -->
<g id="node5" class="node">
<title>[zeeguu/core/account_management/user_account_creation.py]</title>
<polygon fill="#00b2ee" stroke="white" points="2300.88,-294.75 1894.12,-294.75 1894.12,-258.75 2300.88,-258.75 2300.88,-294.75"/>
<text xml:space="preserve" text-anchor="middle" x="2097.5" y="-272.07" font-family="Tahoma" font-size="14.00">[zeeguu/core/account_management/user_account_creation.py]</text>
</g>
<!-- [zeeguu/core/account_management/user_account_creation.py]&#45;&#45;[zeeguu/core/model/user.py] -->
<g id="edge3" class="edge">
<title>[zeeguu/core/account_management/user_account_creation.py]&#45;&#45;[zeeguu/core/model/user.py]</title>
<path fill="none" stroke="#00688b" stroke-width="8" stroke-opacity="0.858824" d="M2109.31,-258.29C2119.09,-243.83 2132.93,-223.39 2142.7,-208.93"/>
<text xml:space="preserve" text-anchor="middle" x="2139.16" y="-229.35" font-family="Arial" font-size="12.00"> 24 </text>
</g>
<!-- [zeeguu/core/model/user.py]&#45;&#45;[zeeguu/api/endpoints/user.py] -->
<g id="edge5" class="edge">
<title>[zeeguu/core/model/user.py]&#45;&#45;[zeeguu/api/endpoints/user.py]</title>
<path fill="none" stroke="#00688b" stroke-width="8" stroke-opacity="0.858824" d="M2217.7,-172.04C2270.04,-157.58 2344.06,-137.14 2396.38,-122.68"/>
<text xml:space="preserve" text-anchor="middle" x="2335.01" y="-143.1" font-family="Arial" font-size="12.00"> 23 </text>
</g>
<!-- [zeeguu/core/model/user.py]&#45;&#45;[zeeguu/api/endpoints/badges.py] -->
<g id="edge18" class="edge">
<title>[zeeguu/core/model/user.py]&#45;&#45;[zeeguu/api/endpoints/badges.py]</title>
<path fill="none" stroke="#00688b" stroke-width="6" stroke-opacity="0.717647" d="M2154.5,-172.21C2154.5,-139.53 2154.5,-69.05 2154.5,-36.33"/>
<text xml:space="preserve" text-anchor="middle" x="2164.25" y="-99.97" font-family="Arial" font-size="12.00"> 18 </text>
</g>
<!-- [zeeguu/api/endpoints/daily_streak.py]&#45;&#45;[zeeguu/core/model/user.py] -->
<g id="edge10" class="edge">
<title>[zeeguu/api/endpoints/daily_streak.py]&#45;&#45;[zeeguu/core/model/user.py]</title>
<path fill="none" stroke="#00688b" stroke-width="7" stroke-opacity="0.788235" d="M2906.64,-258.34C2877.06,-247.15 2836.54,-233.46 2799.5,-226.5 2773.1,-221.54 2424.83,-204.39 2251.34,-196.09"/>
<text xml:space="preserve" text-anchor="middle" x="2863.85" y="-229.35" font-family="Arial" font-size="12.00"> 21 </text>
</g>
<!-- [zeeguu/api/endpoints/daily_streak.py]&#45;&#45;[zeeguu/api/endpoints/user.py] -->
<g id="edge4" class="edge">
<title>[zeeguu/api/endpoints/daily_streak.py]&#45;&#45;[zeeguu/api/endpoints/user.py]</title>
<path fill="none" stroke="#00688b" stroke-width="8" stroke-opacity="0.858824" d="M2927.91,-258.29C2914.15,-247.86 2895.58,-235.04 2877.5,-226.5 2769.88,-175.69 2636.47,-141.5 2549.73,-122.72"/>
<text xml:space="preserve" text-anchor="middle" x="2845.35" y="-186.22" font-family="Arial" font-size="12.00"> 23 </text>
</g>
<!-- [zeeguu/api/endpoints/daily_streak.py]&#45;&#45;[zeeguu/api/endpoints/badges.py] -->
<g id="edge14" class="edge">
<title>[zeeguu/api/endpoints/daily_streak.py]&#45;&#45;[zeeguu/api/endpoints/badges.py]</title>
<path fill="none" stroke="#00688b" stroke-width="7" stroke-opacity="0.788235" d="M2938.93,-258.44C2924.03,-235.47 2894.68,-195.17 2859.5,-172.5 2675.63,-54.02 2414.57,-25.75 2267.18,-19.75"/>
<text xml:space="preserve" text-anchor="middle" x="2837.45" y="-143.1" font-family="Arial" font-size="12.00"> 20 </text>
</g>
<!-- [zeeguu/api/endpoints/user.py]&#45;&#45;[zeeguu/api/endpoints/badges.py] -->
<g id="edge30" class="edge">
<title>[zeeguu/api/endpoints/user.py]&#45;&#45;[zeeguu/api/endpoints/badges.py]</title>
<path fill="none" stroke="#00688b" stroke-width="5" stroke-opacity="0.647059" d="M2396.3,-85.79C2343.96,-71.33 2269.94,-50.89 2217.62,-36.43"/>
<text xml:space="preserve" text-anchor="middle" x="2335.01" y="-56.85" font-family="Arial" font-size="12.00"> 15 </text>
</g>
<!-- [zeeguu/core/model/user_language.py] -->
<g id="node9" class="node">
<title>[zeeguu/core/model/user_language.py]</title>
<polygon fill="#00b2ee" stroke="white" points="1785.62,-467.25 1527.38,-467.25 1527.38,-431.25 1785.62,-431.25 1785.62,-467.25"/>
<text xml:space="preserve" text-anchor="middle" x="1656.5" y="-444.57" font-family="Tahoma" font-size="14.00">[zeeguu/core/model/user_language.py]</text>
</g>
<!-- [zeeguu/core/model/user_language.py]&#45;&#45;[zeeguu/core/audio_lessons/daily_lesson_generator.py] -->
<g id="edge46" class="edge">
<title>[zeeguu/core/model/user_language.py]&#45;&#45;[zeeguu/core/audio_lessons/daily_lesson_generator.py]</title>
<path fill="none" stroke="#00688b" stroke-width="4" stroke-opacity="0.576471" d="M1526.93,-442.52C1475.52,-437.73 1416.4,-429.02 1364.5,-413.25 1351.14,-409.19 1349.41,-404.32 1336.5,-399 1318.37,-391.53 1187.54,-349.67 1168.5,-345 1081.65,-323.71 982.36,-306.75 905.44,-295.19"/>
<text xml:space="preserve" text-anchor="middle" x="1291.92" y="-358.73" font-family="Arial" font-size="12.00"> 13 </text>
</g>
<!-- [zeeguu/core/model/user_language.py]&#45;&#45;[zeeguu/api/endpoints/friends.py] -->
<g id="edge29" class="edge">
<title>[zeeguu/core/model/user_language.py]&#45;&#45;[zeeguu/api/endpoints/friends.py]</title>
<path fill="none" stroke="#00688b" stroke-width="5" stroke-opacity="0.647059" d="M1785.99,-444.67C1933.84,-440 2182.87,-430.32 2396.5,-413.25 2507.42,-404.39 2633.69,-389.65 2721.88,-378.6"/>
<text xml:space="preserve" text-anchor="middle" x="2550.71" y="-401.85" font-family="Arial" font-size="12.00"> 15 </text>
</g>
<!-- [zeeguu/core/model/user_language.py]&#45;&#45;[zeeguu/core/model/user.py] -->
<g id="edge8" class="edge">
<title>[zeeguu/core/model/user_language.py]&#45;&#45;[zeeguu/core/model/user.py]</title>
<path fill="none" stroke="#00688b" stroke-width="7" stroke-opacity="0.788235" d="M1587.36,-430.81C1522.07,-410.25 1427.9,-369.08 1384.5,-294.75 1376.43,-280.93 1373.69,-270.55 1384.5,-258.75 1429.15,-210.03 1861.06,-196.47 2057.77,-192.81"/>
<text xml:space="preserve" text-anchor="middle" x="1416.74" y="-315.6" font-family="Arial" font-size="12.00"> 22 </text>
</g>
<!-- [zeeguu/core/model/user_language.py]&#45;&#45;[zeeguu/api/endpoints/daily_streak.py] -->
<g id="edge6" class="edge">
<title>[zeeguu/core/model/user_language.py]&#45;&#45;[zeeguu/api/endpoints/daily_streak.py]</title>
<path fill="none" stroke="#00688b" stroke-width="8" stroke-opacity="0.858824" d="M1785.92,-431.62C1787.45,-431.49 1788.98,-431.37 1790.5,-431.25 1918.61,-421.15 2244.02,-445.16 2368.5,-413.25 2382.03,-409.78 2383.58,-404.3 2396.5,-399 2523.26,-346.96 2558,-338.96 2692.5,-312.75 2717.53,-307.87 2770.71,-300.46 2822.23,-293.71"/>
<text xml:space="preserve" text-anchor="middle" x="2554.11" y="-358.73" font-family="Arial" font-size="12.00"> 23 </text>
</g>
<!-- [zeeguu/core/model/user_language.py]&#45;&#45;[zeeguu/api/endpoints/user.py] -->
<g id="edge41" class="edge">
<title>[zeeguu/core/model/user_language.py]&#45;&#45;[zeeguu/api/endpoints/user.py]</title>
<path fill="none" stroke="#00688b" stroke-width="4" stroke-opacity="0.576471" d="M1785.93,-431.75C1787.46,-431.58 1788.98,-431.41 1790.5,-431.25 1912.07,-418.02 2239.3,-452.51 2338.5,-381 2339.22,-380.48 2425.66,-182.71 2451.98,-122.46"/>
<text xml:space="preserve" text-anchor="middle" x="2401.64" y="-272.48" font-family="Arial" font-size="12.00"> 13 </text>
</g>
<!-- [zeeguu/core/badges/badge_progress.py] -->
<g id="node13" class="node">
<title>[zeeguu/core/badges/badge_progress.py]</title>
<polygon fill="#00b2ee" stroke="white" points="1159.75,-381 887.25,-381 887.25,-345 1159.75,-345 1159.75,-381"/>
<text xml:space="preserve" text-anchor="middle" x="1023.5" y="-358.32" font-family="Tahoma" font-size="14.00">[zeeguu/core/badges/badge_progress.py]</text>
</g>
<!-- [zeeguu/core/model/user_language.py]&#45;&#45;[zeeguu/core/badges/badge_progress.py] -->
<g id="edge23" class="edge">
<title>[zeeguu/core/model/user_language.py]&#45;&#45;[zeeguu/core/badges/badge_progress.py]</title>
<path fill="none" stroke="#00688b" stroke-width="5" stroke-opacity="0.647059" d="M1526.9,-436.84C1463.5,-430.76 1386.14,-422.61 1317,-413.25 1250.31,-404.23 1175.51,-391.64 1118.11,-381.44"/>
<text xml:space="preserve" text-anchor="middle" x="1326.75" y="-401.85" font-family="Arial" font-size="12.00"> 16 </text>
</g>
<!-- [zeeguu/core/model/user_language.py]&#45;&#45;[zeeguu/api/endpoints/badges.py] -->
<g id="edge22" class="edge">
<title>[zeeguu/core/model/user_language.py]&#45;&#45;[zeeguu/api/endpoints/badges.py]</title>
<path fill="none" stroke="#00688b" stroke-width="5" stroke-opacity="0.647059" d="M1569.28,-430.81C1547.61,-425.79 1524.56,-419.86 1503.5,-413.25 1466.92,-401.77 1455,-402.85 1423.5,-381 1351.02,-330.74 1289.5,-322.82 1289.5,-234.62 1289.5,-234.62 1289.5,-234.62 1289.5,-103.25 1289.5,-28.52 1807.6,-19 2041.86,-18.51"/>
<text xml:space="preserve" text-anchor="middle" x="1299.31" y="-229.35" font-family="Arial" font-size="12.00"> 16 </text>
</g>
<!-- [zeeguu/api/endpoints/translation.py] -->
<g id="node18" class="node">
<title>[zeeguu/api/endpoints/translation.py]</title>
<polygon fill="#00b2ee" stroke="white" points="2329.5,-381 2085.5,-381 2085.5,-345 2329.5,-345 2329.5,-381"/>
<text xml:space="preserve" text-anchor="middle" x="2207.5" y="-358.32" font-family="Tahoma" font-size="14.00">[zeeguu/api/endpoints/translation.py]</text>
</g>
<!-- [zeeguu/core/model/user_language.py]&#45;&#45;[zeeguu/api/endpoints/translation.py] -->
<g id="edge27" class="edge">
<title>[zeeguu/core/model/user_language.py]&#45;&#45;[zeeguu/api/endpoints/translation.py]</title>
<path fill="none" stroke="#00688b" stroke-width="5" stroke-opacity="0.647059" d="M1770.67,-430.79C1865.23,-416.33 1998.95,-395.89 2093.48,-381.43"/>
<text xml:space="preserve" text-anchor="middle" x="1974.74" y="-401.85" font-family="Arial" font-size="12.00"> 16 </text>
</g>
<!-- [tools/migrations/26&#45;02&#45;24&#45;friendship_system.sql]&#45;&#45;[zeeguu/core/model/user.py] -->
<g id="edge31" class="edge">
<title>[tools/migrations/26&#45;02&#45;24&#45;friendship_system.sql]&#45;&#45;[zeeguu/core/model/user.py]</title>
<path fill="none" stroke="#00688b" stroke-width="5" stroke-opacity="0.647059" d="M2507.48,-258.29C2461.4,-248.62 2402.82,-236.56 2350.5,-226.5 2318.25,-220.3 2282.95,-213.88 2251.3,-208.26"/>
<text xml:space="preserve" text-anchor="middle" x="2426" y="-229.35" font-family="Arial" font-size="12.00"> 15 </text>
</g>
<!-- [tools/migrations/26&#45;02&#45;24&#45;friendship_system.sql]&#45;&#45;[zeeguu/api/endpoints/user.py] -->
<g id="edge36" class="edge">
<title>[tools/migrations/26&#45;02&#45;24&#45;friendship_system.sql]&#45;&#45;[zeeguu/api/endpoints/user.py]</title>
<path fill="none" stroke="#00688b" stroke-width="4" stroke-opacity="0.576471" d="M2576.32,-258.46C2551.4,-225.78 2497.66,-155.3 2472.72,-122.58"/>
<text xml:space="preserve" text-anchor="middle" x="2547.17" y="-186.22" font-family="Arial" font-size="12.00"> 13 </text>
</g>
<!-- [zeeguu/core/model/audio_lesson_meaning.py] -->
<g id="node11" class="node">
<title>[zeeguu/core/model/audio_lesson_meaning.py]</title>
<polygon fill="#00b2ee" stroke="white" points="307,-553.5 0,-553.5 0,-517.5 307,-517.5 307,-553.5"/>
<text xml:space="preserve" text-anchor="middle" x="153.5" y="-530.83" font-family="Tahoma" font-size="14.00">[zeeguu/core/model/audio_lesson_meaning.py]</text>
</g>
<!-- [zeeguu/core/model/audio_lesson_meaning.py]&#45;&#45;[zeeguu/api/endpoints/audio_lessons.py] -->
<g id="edge26" class="edge">
<title>[zeeguu/core/model/audio_lesson_meaning.py]&#45;&#45;[zeeguu/api/endpoints/audio_lessons.py]</title>
<path fill="none" stroke="#00688b" stroke-width="5" stroke-opacity="0.647059" d="M215.45,-517.04C266.77,-502.58 339.33,-482.14 390.63,-467.68"/>
<text xml:space="preserve" text-anchor="middle" x="330.65" y="-488.1" font-family="Arial" font-size="12.00"> 16 </text>
</g>
<!-- [zeeguu/core/model/audio_lesson_meaning.py]&#45;&#45;[zeeguu/core/audio_lessons/daily_lesson_generator.py] -->
<g id="edge9" class="edge">
<title>[zeeguu/core/model/audio_lesson_meaning.py]&#45;&#45;[zeeguu/core/audio_lessons/daily_lesson_generator.py]</title>
<path fill="none" stroke="#00688b" stroke-width="7" stroke-opacity="0.788235" d="M144.38,-517.07C127.14,-481.45 94.58,-399.12 130.5,-345 147.03,-320.1 160.78,-321.01 189.5,-312.75 263.76,-291.4 455.44,-283.06 599.72,-279.81"/>
<text xml:space="preserve" text-anchor="middle" x="124.28" y="-401.85" font-family="Arial" font-size="12.00"> 22 </text>
</g>
<!-- [zeeguu/core/model/daily_audio_lesson.py]&#45;&#45;[zeeguu/core/audio_lessons/daily_lesson_generator.py] -->
<g id="edge11" class="edge">
<title>[zeeguu/core/model/daily_audio_lesson.py]&#45;&#45;[zeeguu/core/audio_lessons/daily_lesson_generator.py]</title>
<path fill="none" stroke="#00688b" stroke-width="7" stroke-opacity="0.788235" d="M676.61,-344.54C698.23,-330.08 728.81,-309.64 750.43,-295.18"/>
<text xml:space="preserve" text-anchor="middle" x="730.79" y="-315.6" font-family="Arial" font-size="12.00"> 21 </text>
</g>
<!-- [zeeguu/core/badges/badge_progress.py]&#45;&#45;[zeeguu/core/audio_lessons/daily_lesson_generator.py] -->
<g id="edge39" class="edge">
<title>[zeeguu/core/badges/badge_progress.py]&#45;&#45;[zeeguu/core/audio_lessons/daily_lesson_generator.py]</title>
<path fill="none" stroke="#00688b" stroke-width="4" stroke-opacity="0.576471" d="M972.32,-344.54C929.93,-330.08 869.99,-309.64 827.61,-295.18"/>
<text xml:space="preserve" text-anchor="middle" x="924.54" y="-315.6" font-family="Arial" font-size="12.00"> 13 </text>
</g>
<!-- [zeeguu/core/badges/badge_progress.py]&#45;&#45;[zeeguu/api/endpoints/badges.py] -->
<g id="edge13" class="edge">
<title>[zeeguu/core/badges/badge_progress.py]&#45;&#45;[zeeguu/api/endpoints/badges.py]</title>
<path fill="none" stroke="#00688b" stroke-width="7" stroke-opacity="0.788235" d="M1044.4,-344.56C1060.67,-328.94 1080.5,-304.42 1080.5,-277.75 1080.5,-277.75 1080.5,-277.75 1080.5,-103.25 1080.5,-56.48 1128.32,-66.08 1173.5,-54 1255.35,-32.11 1802.07,-23.11 2041.99,-20.18"/>
<text xml:space="preserve" text-anchor="middle" x="1090.25" y="-186.22" font-family="Arial" font-size="12.00"> 20 </text>
</g>
<!-- [zeeguu/core/model/badge.py] -->
<g id="node15" class="node">
<title>[zeeguu/core/model/badge.py]</title>
<polygon fill="#00b2ee" stroke="white" points="1227.75,-467.25 1021.25,-467.25 1021.25,-431.25 1227.75,-431.25 1227.75,-467.25"/>
<text xml:space="preserve" text-anchor="middle" x="1124.5" y="-444.57" font-family="Tahoma" font-size="14.00">[zeeguu/core/model/badge.py]</text>
</g>
<!-- [zeeguu/core/model/badge.py]&#45;&#45;[zeeguu/core/badges/badge_progress.py] -->
<g id="edge32" class="edge">
<title>[zeeguu/core/model/badge.py]&#45;&#45;[zeeguu/core/badges/badge_progress.py]</title>
<path fill="none" stroke="#00688b" stroke-width="5" stroke-opacity="0.647059" d="M1103.57,-430.79C1086.24,-416.33 1061.73,-395.89 1044.4,-381.43"/>
<text xml:space="preserve" text-anchor="middle" x="1089.8" y="-401.85" font-family="Arial" font-size="12.00"> 14 </text>
</g>
<!-- [zeeguu/core/model/badge.py]&#45;&#45;[zeeguu/api/endpoints/badges.py] -->
<g id="edge16" class="edge">
<title>[zeeguu/core/model/badge.py]&#45;&#45;[zeeguu/api/endpoints/badges.py]</title>
<path fill="none" stroke="#00688b" stroke-width="7" stroke-opacity="0.788235" d="M1147.96,-430.97C1165.87,-415.61 1187.5,-391.4 1187.5,-364 1187.5,-364 1187.5,-364 1187.5,-103.25 1187.5,-77.15 1196.8,-66.88 1219.5,-54 1254.67,-34.05 1800.82,-23.96 2041.76,-20.46"/>
<text xml:space="preserve" text-anchor="middle" x="1197.25" y="-229.35" font-family="Arial" font-size="12.00"> 20 </text>
</g>
<!-- [zeeguu/core/audio_lessons/script_generator.py] -->
<g id="node16" class="node">
<title>[zeeguu/core/audio_lessons/script_generator.py]</title>
<polygon fill="#00b2ee" stroke="white" points="491,-381 178,-381 178,-345 491,-345 491,-381"/>
<text xml:space="preserve" text-anchor="middle" x="334.5" y="-358.32" font-family="Tahoma" font-size="14.00">[zeeguu/core/audio_lessons/script_generator.py]</text>
</g>
<!-- [zeeguu/core/audio_lessons/script_generator.py]&#45;&#45;[zeeguu/core/audio_lessons/daily_lesson_generator.py] -->
<g id="edge21" class="edge">
<title>[zeeguu/core/audio_lessons/script_generator.py]&#45;&#45;[zeeguu/core/audio_lessons/daily_lesson_generator.py]</title>
<path fill="none" stroke="#00688b" stroke-width="6" stroke-opacity="0.717647" d="M426.08,-344.54C501.94,-330.08 609.21,-309.64 685.03,-295.18"/>
<text xml:space="preserve" text-anchor="middle" x="591.71" y="-315.6" font-family="Arial" font-size="12.00"> 17 </text>
</g>
<!-- [zeeguu/core/model/audio_lesson_generation_progress.py] -->
<g id="node17" class="node">
<title>[zeeguu/core/model/audio_lesson_generation_progress.py]</title>
<polygon fill="#00b2ee" stroke="white" points="856,-553.5 477,-553.5 477,-517.5 856,-517.5 856,-553.5"/>
<text xml:space="preserve" text-anchor="middle" x="666.5" y="-530.83" font-family="Tahoma" font-size="14.00">[zeeguu/core/model/audio_lesson_generation_progress.py]</text>
</g>
<!-- [zeeguu/core/model/audio_lesson_generation_progress.py]&#45;&#45;[zeeguu/api/endpoints/audio_lessons.py] -->
<g id="edge24" class="edge">
<title>[zeeguu/core/model/audio_lesson_generation_progress.py]&#45;&#45;[zeeguu/api/endpoints/audio_lessons.py]</title>
<path fill="none" stroke="#00688b" stroke-width="5" stroke-opacity="0.647059" d="M622.16,-517.04C585.43,-502.58 533.5,-482.14 496.78,-467.68"/>
<text xml:space="preserve" text-anchor="middle" x="582.06" y="-488.1" font-family="Arial" font-size="12.00"> 16 </text>
</g>
<!-- [zeeguu/core/model/audio_lesson_generation_progress.py]&#45;&#45;[zeeguu/core/audio_lessons/daily_lesson_generator.py] -->
<g id="edge25" class="edge">
<title>[zeeguu/core/model/audio_lesson_generation_progress.py]&#45;&#45;[zeeguu/core/audio_lessons/daily_lesson_generator.py]</title>
<path fill="none" stroke="#00688b" stroke-width="5" stroke-opacity="0.647059" d="M689.81,-517.07C721.93,-491.43 778.32,-440.12 800.5,-381 811.49,-351.71 797.3,-315.79 786.53,-294.96"/>
<text xml:space="preserve" text-anchor="middle" x="801.74" y="-401.85" font-family="Arial" font-size="12.00"> 16 </text>
</g>
<!-- [zeeguu/api/endpoints/translation.py]&#45;&#45;[zeeguu/core/model/user.py] -->
<g id="edge48" class="edge">
<title>[zeeguu/api/endpoints/translation.py]&#45;&#45;[zeeguu/core/model/user.py]</title>
<path fill="none" stroke="#00688b" stroke-width="4" stroke-opacity="0.576471" d="M2247.02,-344.62C2284.52,-325.56 2332.03,-293.09 2309.5,-258.75 2293.57,-234.47 2266.78,-218.91 2239.91,-208.96"/>
<text xml:space="preserve" text-anchor="middle" x="2325.07" y="-272.48" font-family="Arial" font-size="12.00"> 13 </text>
</g>
<!-- [zeeguu/api/endpoints/accounts.py] -->
<g id="node19" class="node">
<title>[zeeguu/api/endpoints/accounts.py]</title>
<polygon fill="#00b2ee" stroke="white" points="1629,-294.75 1394,-294.75 1394,-258.75 1629,-258.75 1629,-294.75"/>
<text xml:space="preserve" text-anchor="middle" x="1511.5" y="-272.07" font-family="Tahoma" font-size="14.00">[zeeguu/api/endpoints/accounts.py]</text>
</g>
<!-- [zeeguu/api/endpoints/accounts.py]&#45;&#45;[zeeguu/core/model/user.py] -->
<g id="edge33" class="edge">
<title>[zeeguu/api/endpoints/accounts.py]&#45;&#45;[zeeguu/core/model/user.py]</title>
<path fill="none" stroke="#00688b" stroke-width="5" stroke-opacity="0.647059" d="M1629.2,-259.85C1632,-259.48 1634.76,-259.11 1637.5,-258.75 1783.98,-239.34 1953.88,-217.34 2057.77,-203.94"/>
<text xml:space="preserve" text-anchor="middle" x="1887.97" y="-229.35" font-family="Arial" font-size="12.00"> 14 </text>
</g>
<!-- [zeeguu/core/word_scheduling/basicSR/four_levels_per_word.py] -->
<g id="node20" class="node">
<title>[zeeguu/core/word_scheduling/basicSR/four_levels_per_word.py]</title>
<polygon fill="#00b2ee" stroke="white" points="2059.5,-639.75 1641.5,-639.75 1641.5,-603.75 2059.5,-603.75 2059.5,-639.75"/>
<text xml:space="preserve" text-anchor="middle" x="1850.5" y="-617.08" font-family="Tahoma" font-size="14.00">[zeeguu/core/word_scheduling/basicSR/four_levels_per_word.py]</text>
</g>
<!-- [zeeguu/core/word_scheduling/basicSR/four_levels_per_word.py]&#45;&#45;[zeeguu/core/model/user_language.py] -->
<g id="edge34" class="edge">
<title>[zeeguu/core/word_scheduling/basicSR/four_levels_per_word.py]&#45;&#45;[zeeguu/core/model/user_language.py]</title>
<path fill="none" stroke="#00688b" stroke-width="4" stroke-opacity="0.576471" d="M1830.83,-603.46C1793.65,-570.78 1713.44,-500.3 1676.22,-467.58"/>
<text xml:space="preserve" text-anchor="middle" x="1782.54" y="-531.23" font-family="Arial" font-size="12.00"> 13 </text>
</g>
<!-- [zeeguu/core/model/user_word.py] -->
<g id="node21" class="node">
<title>[zeeguu/core/model/user_word.py]</title>
<polygon fill="#00b2ee" stroke="white" points="1442.25,-553.5 1208.75,-553.5 1208.75,-517.5 1442.25,-517.5 1442.25,-553.5"/>
<text xml:space="preserve" text-anchor="middle" x="1325.5" y="-530.83" font-family="Tahoma" font-size="14.00">[zeeguu/core/model/user_word.py]</text>
</g>
<!-- [zeeguu/core/word_scheduling/basicSR/four_levels_per_word.py]&#45;&#45;[zeeguu/core/model/user_word.py] -->
<g id="edge42" class="edge">
<title>[zeeguu/core/word_scheduling/basicSR/four_levels_per_word.py]&#45;&#45;[zeeguu/core/model/user_word.py]</title>
<path fill="none" stroke="#00688b" stroke-width="4" stroke-opacity="0.576471" d="M1741.72,-603.29C1651.62,-588.83 1524.21,-568.39 1434.14,-553.93"/>
<text xml:space="preserve" text-anchor="middle" x="1629.18" y="-574.35" font-family="Arial" font-size="12.00"> 13 </text>
</g>
<!-- [zeeguu/core/model/user_word.py]&#45;&#45;[zeeguu/core/audio_lessons/daily_lesson_generator.py] -->
<g id="edge47" class="edge">
<title>[zeeguu/core/model/user_word.py]&#45;&#45;[zeeguu/core/audio_lessons/daily_lesson_generator.py]</title>
<path fill="none" stroke="#00688b" stroke-width="4" stroke-opacity="0.576471" d="M1208.45,-528.37C1135.88,-523.2 1050.28,-514.23 1016.5,-499.5 903.52,-450.24 898.25,-400.3 811.5,-312.75 805.81,-307.01 799.59,-300.77 793.98,-295.17"/>
<text xml:space="preserve" text-anchor="middle" x="906.7" y="-401.85" font-family="Arial" font-size="12.00"> 13 </text>
</g>
<!-- [zeeguu/core/model/user_word.py]&#45;&#45;[zeeguu/core/model/user.py] -->
<g id="edge35" class="edge">
<title>[zeeguu/core/model/user_word.py]&#45;&#45;[zeeguu/core/model/user.py]</title>
<path fill="none" stroke="#00688b" stroke-width="4" stroke-opacity="0.576471" d="M1323.34,-517.11C1317.07,-457.81 1305.94,-265.04 1420.5,-226.5 1479.26,-206.73 1871.94,-196.81 2057.59,-193.17"/>
<text xml:space="preserve" text-anchor="middle" x="1339.79" y="-358.73" font-family="Arial" font-size="12.00"> 13 </text>
</g>
<!-- [zeeguu/core/model/user_word.py]&#45;&#45;[zeeguu/core/model/user_language.py] -->
<g id="edge45" class="edge">
<title>[zeeguu/core/model/user_word.py]&#45;&#45;[zeeguu/core/model/user_language.py]</title>
<path fill="none" stroke="#00688b" stroke-width="4" stroke-opacity="0.576471" d="M1394.08,-517.04C1450.89,-502.58 1531.22,-482.14 1588,-467.68"/>
<text xml:space="preserve" text-anchor="middle" x="1520.57" y="-488.1" font-family="Arial" font-size="12.00"> 13 </text>
</g>
<!-- [zeeguu/core/model/user_word.py]&#45;&#45;[zeeguu/core/badges/badge_progress.py] -->
<g id="edge43" class="edge">
<title>[zeeguu/core/model/user_word.py]&#45;&#45;[zeeguu/core/badges/badge_progress.py]</title>
<path fill="none" stroke="#00688b" stroke-width="4" stroke-opacity="0.576471" d="M1208.29,-526.26C1123.83,-517.6 1020.13,-500.41 993,-467.25 972.41,-442.08 993.9,-403.42 1009.78,-381.25"/>
<text xml:space="preserve" text-anchor="middle" x="1002.75" y="-444.98" font-family="Arial" font-size="12.00"> 13 </text>
</g>
<!-- [zeeguu/core/model/user_word.py]&#45;&#45;[zeeguu/api/endpoints/badges.py] -->
<g id="edge44" class="edge">
<title>[zeeguu/core/model/user_word.py]&#45;&#45;[zeeguu/api/endpoints/badges.py]</title>
<path fill="none" stroke="#00688b" stroke-width="4" stroke-opacity="0.576471" d="M1312.22,-517.29C1292.13,-490.11 1254.72,-434.79 1239.5,-381 1221.77,-318.35 1233.5,-299.74 1233.5,-234.62 1233.5,-234.62 1233.5,-234.62 1233.5,-103.25 1233.5,-49.28 1291.95,-66.32 1344.5,-54 1473.57,-23.73 1851.27,-19.05 2041.82,-18.7"/>
<text xml:space="preserve" text-anchor="middle" x="1242.67" y="-272.48" font-family="Arial" font-size="12.00"> 13 </text>
</g>
<!-- [zeeguu/core/model/user_word.py]&#45;&#45;[zeeguu/api/endpoints/translation.py] -->
<g id="edge38" class="edge">
<title>[zeeguu/core/model/user_word.py]&#45;&#45;[zeeguu/api/endpoints/translation.py]</title>
<path fill="none" stroke="#00688b" stroke-width="4" stroke-opacity="0.576471" d="M1442.67,-521.08C1537.88,-509.37 1675.44,-490.6 1794.5,-467.25 1920.51,-442.53 2065.72,-403.8 2146.02,-381.47"/>
<text xml:space="preserve" text-anchor="middle" x="1962.85" y="-444.98" font-family="Arial" font-size="12.00"> 13 </text>
</g>
<!-- [zeeguu/api/endpoints/__init__.py] -->
<g id="node22" class="node">
<title>[zeeguu/api/endpoints/__init__.py]</title>
<polygon fill="#00b2ee" stroke="white" points="1876,-294.75 1647,-294.75 1647,-258.75 1876,-258.75 1876,-294.75"/>
<text xml:space="preserve" text-anchor="middle" x="1761.5" y="-272.07" font-family="Tahoma" font-size="14.00">[zeeguu/api/endpoints/__init__.py]</text>
</g>
<!-- [zeeguu/api/endpoints/__init__.py]&#45;&#45;[zeeguu/core/model/user.py] -->
<g id="edge37" class="edge">
<title>[zeeguu/api/endpoints/__init__.py]&#45;&#45;[zeeguu/core/model/user.py]</title>
<path fill="none" stroke="#00688b" stroke-width="4" stroke-opacity="0.576471" d="M1842.93,-258.29C1910.38,-243.83 2005.75,-223.39 2073.17,-208.93"/>
<text xml:space="preserve" text-anchor="middle" x="1991.28" y="-229.35" font-family="Arial" font-size="12.00"> 13 </text>
</g>
<!-- [zeeguu/core/badges/listeners.py] -->
<g id="node23" class="node">
<title>[zeeguu/core/badges/listeners.py]</title>
<polygon fill="#00b2ee" stroke="white" points="3396.12,-122.25 3170.88,-122.25 3170.88,-86.25 3396.12,-86.25 3396.12,-122.25"/>
<text xml:space="preserve" text-anchor="middle" x="3283.5" y="-99.58" font-family="Tahoma" font-size="14.00">[zeeguu/core/badges/listeners.py]</text>
</g>
<!-- [zeeguu/core/badges/listeners.py]&#45;&#45;[zeeguu/api/endpoints/badges.py] -->
<g id="edge40" class="edge">
<title>[zeeguu/core/badges/listeners.py]&#45;&#45;[zeeguu/api/endpoints/badges.py]</title>
<path fill="none" stroke="#00688b" stroke-width="4" stroke-opacity="0.576471" d="M3248.07,-85.81C3223.13,-74.46 3188.58,-60.58 3156.5,-54 2989.61,-19.75 2492.09,-17.41 2267.15,-18.21"/>
<text xml:space="preserve" text-anchor="middle" x="3212.87" y="-56.85" font-family="Arial" font-size="12.00"> 13 </text>
</g>
<!-- [zeeguu/core/model/__init__.py] -->
<g id="node24" class="node">
<title>[zeeguu/core/model/__init__.py]</title>
<polygon fill="#00b2ee" stroke="white" points="2829,-639.75 2612,-639.75 2612,-603.75 2829,-603.75 2829,-639.75"/>
<text xml:space="preserve" text-anchor="middle" x="2720.5" y="-617.08" font-family="Tahoma" font-size="14.00">[zeeguu/core/model/__init__.py]</text>
</g>
<!-- [zeeguu/core/account_management/user_account_deletion.py] -->
<g id="node25" class="node">
<title>[zeeguu/core/account_management/user_account_deletion.py]</title>
<polygon fill="#00b2ee" stroke="white" points="2923.12,-553.5 2517.88,-553.5 2517.88,-517.5 2923.12,-517.5 2923.12,-553.5"/>
<text xml:space="preserve" text-anchor="middle" x="2720.5" y="-530.83" font-family="Tahoma" font-size="14.00">[zeeguu/core/account_management/user_account_deletion.py]</text>
</g>
<!-- [zeeguu/core/model/__init__.py]&#45;&#45;[zeeguu/core/account_management/user_account_deletion.py] -->
<g id="edge49" class="edge">
<title>[zeeguu/core/model/__init__.py]&#45;&#45;[zeeguu/core/account_management/user_account_deletion.py]</title>
<path fill="none" stroke="#00688b" stroke-width="4" stroke-opacity="0.576471" d="M2720.5,-603.29C2720.5,-588.83 2720.5,-568.39 2720.5,-553.93"/>
<text xml:space="preserve" text-anchor="middle" x="2730.25" y="-574.35" font-family="Arial" font-size="12.00"> 13 </text>
</g>
<!-- [zeeguu/core/leaderboards/leaderboards.py] -->
<g id="node26" class="node">
<title>[zeeguu/core/leaderboards/leaderboards.py]</title>
<polygon fill="#00b2ee" stroke="white" points="3026.75,-467.25 2736.25,-467.25 2736.25,-431.25 3026.75,-431.25 3026.75,-467.25"/>
<text xml:space="preserve" text-anchor="middle" x="2881.5" y="-444.57" font-family="Tahoma" font-size="14.00">[zeeguu/core/leaderboards/leaderboards.py]</text>
</g>
<!-- [zeeguu/core/leaderboards/leaderboards.py]&#45;&#45;[zeeguu/api/endpoints/friends.py] -->
<g id="edge50" class="edge">
<title>[zeeguu/core/leaderboards/leaderboards.py]&#45;&#45;[zeeguu/api/endpoints/friends.py]</title>
<path fill="none" stroke="#00688b" stroke-width="4" stroke-opacity="0.576471" d="M2871.55,-430.79C2863.32,-416.33 2851.67,-395.89 2843.43,-381.43"/>
<text xml:space="preserve" text-anchor="middle" x="2870.12" y="-401.85" font-family="Arial" font-size="12.00"> 12 </text>
</g>
</g>
</svg>
