<svg width="404pt" height="475pt"
 viewBox="0.00 0.00 404.00 475.00" xmlns="http://www.w3.org/2000/svg" xmlns:xlink="http://www.w3.org/1999/xlink">
<g id="graph0" class="graph" transform="scale(1 1) rotate(0) translate(4 471.25)">
<title>G</title>
<polygon fill="white" stroke="none" points="-4,4 -4,-471.25 400.43,-471.25 400.43,4 -4,4"/>
<!-- zeeguu/core -->
<g id="node1" class="node">
<title>zeeguu/core</title>
<polygon fill="#00b2ee" stroke="white" points="235.55,-381 143.8,-381 143.8,-345 235.55,-345 235.55,-381"/>
<text xml:space="preserve" text-anchor="middle" x="189.68" y="-358.32" font-family="Tahoma" font-size="14.00">zeeguu/core</text>
</g>
<!-- zeeguu/core&#45;&#45;zeeguu/core -->
<g id="edge2" class="edge">
<title>zeeguu/core&#45;&#45;zeeguu/core</title>
<path fill="none" stroke="#a0a0a0" stroke-width="9" stroke-opacity="0.929412" d="M235.9,-370.87C246.11,-370.13 253.55,-367.51 253.55,-363 253.55,-358.49 246.11,-355.87 235.9,-355.13"/>
<text xml:space="preserve" text-anchor="middle" x="266.68" y="-358.73" font-family="Arial" font-size="12.00"> 139 </text>
</g>
<!-- zeeguu/api -->
<g id="node2" class="node">
<title>zeeguu/api</title>
<polygon fill="#00b2ee" stroke="white" points="231.05,-294.75 148.3,-294.75 148.3,-258.75 231.05,-258.75 231.05,-294.75"/>
<text xml:space="preserve" text-anchor="middle" x="189.68" y="-272.07" font-family="Tahoma" font-size="14.00">zeeguu/api</text>
</g>
<!-- zeeguu/core&#45;&#45;zeeguu/api -->
<g id="edge1" class="edge">
<title>zeeguu/core&#45;&#45;zeeguu/api</title>
<path fill="none" stroke="#00688b" stroke-width="10" d="M189.68,-344.54C189.68,-330.08 189.68,-309.64 189.68,-295.18"/>
<text xml:space="preserve" text-anchor="middle" x="202.8" y="-315.6" font-family="Arial" font-size="12.00"> 154 </text>
</g>
<!-- tools/migrations -->
<g id="node3" class="node">
<title>tools/migrations</title>
<polygon fill="#00b2ee" stroke="white" points="144.05,-208.5 31.3,-208.5 31.3,-172.5 144.05,-172.5 144.05,-208.5"/>
<text xml:space="preserve" text-anchor="middle" x="87.68" y="-185.82" font-family="Tahoma" font-size="14.00">tools/migrations</text>
</g>
<!-- zeeguu/core&#45;&#45;tools/migrations -->
<g id="edge3" class="edge">
<title>zeeguu/core&#45;&#45;tools/migrations</title>
<path fill="none" stroke="#00688b" stroke-width="5" stroke-opacity="0.647059" d="M166.42,-344.6C151.32,-332.2 132.27,-314.32 120.18,-294.75 103.19,-267.25 94.36,-230.1 90.39,-208.67"/>
<text xml:space="preserve" text-anchor="middle" x="129.93" y="-272.48" font-family="Arial" font-size="12.00"> 88 </text>
</g>
<!-- zeeguu/api&#45;&#45;zeeguu/api -->
<g id="edge4" class="edge">
<title>zeeguu/api&#45;&#45;zeeguu/api</title>
<path fill="none" stroke="#a0a0a0" stroke-width="5" stroke-opacity="0.647059" d="M231.29,-284.71C241.48,-284.12 249.05,-281.47 249.05,-276.75 249.05,-272.03 241.48,-269.38 231.29,-268.79"/>
<text xml:space="preserve" text-anchor="middle" x="258.8" y="-272.48" font-family="Arial" font-size="12.00"> 87 </text>
</g>
<!-- zeeguu/api&#45;&#45;tools/migrations -->
<g id="edge5" class="edge">
<title>zeeguu/api&#45;&#45;tools/migrations</title>
<path fill="none" stroke="#00688b" stroke-width="4" stroke-opacity="0.576471" d="M168.54,-258.29C151.04,-243.83 126.28,-223.39 108.78,-208.93"/>
<text xml:space="preserve" text-anchor="middle" x="154.53" y="-229.35" font-family="Arial" font-size="12.00"> 68 </text>
</g>
<!-- tools -->
<g id="node4" class="node">
<title>tools</title>
<polygon fill="#00b2ee" stroke="white" points="199.68,-122.25 145.68,-122.25 145.68,-86.25 199.68,-86.25 199.68,-122.25"/>
<text xml:space="preserve" text-anchor="middle" x="172.68" y="-99.58" font-family="Tahoma" font-size="14.00">tools</text>
</g>
<!-- zeeguu/api&#45;&#45;tools -->
<g id="edge8" class="edge">
<title>zeeguu/api&#45;&#45;tools</title>
<path fill="none" stroke="#00688b" stroke-opacity="0.298039" d="M191.31,-258.49C192.93,-237.91 194.63,-202.54 190.68,-172.5 188.41,-155.24 183,-136.12 178.69,-122.69"/>
<text xml:space="preserve" text-anchor="middle" x="199.41" y="-186.22" font-family="Arial" font-size="12.00"> 6 </text>
</g>
<!-- ROOT -->
<g id="node5" class="node">
<title>ROOT</title>
<polygon fill="#00b2ee" stroke="white" points="285.68,-36 231.68,-36 231.68,0 285.68,0 285.68,-36"/>
<text xml:space="preserve" text-anchor="middle" x="258.68" y="-13.32" font-family="Tahoma" font-size="14.00">ROOT</text>
</g>
<!-- zeeguu/api&#45;&#45;ROOT -->
<g id="edge9" class="edge">
<title>zeeguu/api&#45;&#45;ROOT</title>
<path fill="none" stroke="#00688b" stroke-opacity="0.298039" d="M198.78,-258.58C201.54,-252.99 204.43,-246.69 206.68,-240.75 234.47,-167.34 250.42,-74.45 256.19,-36.43"/>
<text xml:space="preserve" text-anchor="middle" x="242.28" y="-143.1" font-family="Arial" font-size="12.00"> 3 </text>
</g>
<!-- tools/migrations&#45;&#45;tools/migrations -->
<g id="edge6" class="edge">
<title>tools/migrations&#45;&#45;tools/migrations</title>
<path fill="none" stroke="#a0a0a0" stroke-opacity="0.368627" d="M144.43,-198.14C154.79,-197.17 162.05,-194.63 162.05,-190.5 162.05,-186.37 154.79,-183.83 144.43,-182.86"/>
<text xml:space="preserve" text-anchor="middle" x="171.8" y="-186.22" font-family="Arial" font-size="12.00"> 25 </text>
</g>
<!-- tools/migrations&#45;&#45;tools -->
<g id="edge16" class="edge">
<title>tools/migrations&#45;&#45;tools</title>
<path fill="none" stroke="#00688b" stroke-opacity="0.298039" d="M105.29,-172.04C119.88,-157.58 140.51,-137.14 155.09,-122.68"/>
<text xml:space="preserve" text-anchor="middle" x="141.64" y="-143.1" font-family="Arial" font-size="12.00"> 3 </text>
</g>
<!-- tools/migrations&#45;&#45;ROOT -->
<g id="edge13" class="edge">
<title>tools/migrations&#45;&#45;ROOT</title>
<path fill="none" stroke="#00688b" stroke-opacity="0.298039" d="M89.72,-172.14C93.17,-149.83 102.06,-111.04 123.93,-86.25 152.72,-53.6 201.06,-34.97 231.34,-25.94"/>
<text xml:space="preserve" text-anchor="middle" x="130.3" y="-99.97" font-family="Arial" font-size="12.00"> 3 </text>
</g>
<!-- tools&#45;&#45;zeeguu/core -->
<g id="edge7" class="edge">
<title>tools&#45;&#45;zeeguu/core</title>
<path fill="none" stroke="#00688b" stroke-opacity="0.298039" d="M200.07,-106.25C224.31,-108.76 258.43,-116.6 275.68,-140.25 320.31,-201.46 292.13,-265.52 277.68,-294.75 266.85,-316.64 245.11,-333.36 225.95,-344.66"/>
<text xml:space="preserve" text-anchor="middle" x="305.49" y="-229.35" font-family="Arial" font-size="12.00"> 7 </text>
</g>
<!-- tools&#45;&#45;tools -->
<g id="edge17" class="edge">
<title>tools&#45;&#45;tools</title>
<path fill="none" stroke="#a0a0a0" stroke-opacity="0.298039" d="M199.92,-112.33C209.7,-112.5 217.68,-109.81 217.68,-104.25 217.68,-98.69 209.7,-96 199.92,-96.17"/>
<text xml:space="preserve" text-anchor="middle" x="224.05" y="-99.97" font-family="Arial" font-size="12.00"> 2 </text>
</g>
<!-- tools&#45;&#45;ROOT -->
<g id="edge19" class="edge">
<title>tools&#45;&#45;ROOT</title>
<path fill="none" stroke="#00688b" stroke-opacity="0.298039" d="M190.5,-85.79C205.26,-71.33 226.13,-50.89 240.88,-36.43"/>
<text xml:space="preserve" text-anchor="middle" x="227.2" y="-56.85" font-family="Arial" font-size="12.00"> 1 </text>
</g>
<!-- ROOT&#45;&#45;zeeguu/core -->
<g id="edge12" class="edge">
<title>ROOT&#45;&#45;zeeguu/core</title>
<path fill="none" stroke="#00688b" stroke-opacity="0.298039" d="M285.72,-31.98C310.27,-45.86 342.68,-70.41 342.68,-103.25 342.68,-277.75 342.68,-277.75 342.68,-277.75 342.68,-327.03 281.03,-347.69 236,-356.21"/>
<text xml:space="preserve" text-anchor="middle" x="349.05" y="-186.22" font-family="Arial" font-size="12.00"> 3 </text>
</g>
<!-- zeeguu/operations -->
<g id="node6" class="node">
<title>zeeguu/operations</title>
<polygon fill="#00b2ee" stroke="white" points="164.55,-467.25 36.8,-467.25 36.8,-431.25 164.55,-431.25 164.55,-467.25"/>
<text xml:space="preserve" text-anchor="middle" x="100.68" y="-444.57" font-family="Tahoma" font-size="14.00">zeeguu/operations</text>
</g>
<!-- zeeguu/operations&#45;&#45;zeeguu/core -->
<g id="edge10" class="edge">
<title>zeeguu/operations&#45;&#45;zeeguu/core</title>
<path fill="none" stroke="#00688b" stroke-opacity="0.298039" d="M119.12,-430.79C134.39,-416.33 155.99,-395.89 171.26,-381.43"/>
<text xml:space="preserve" text-anchor="middle" x="156.88" y="-401.85" font-family="Arial" font-size="12.00"> 3 </text>
</g>
<!-- zeeguu/operations&#45;&#45;zeeguu/api -->
<g id="edge11" class="edge">
<title>zeeguu/operations&#45;&#45;zeeguu/api</title>
<path fill="none" stroke="#00688b" stroke-opacity="0.298039" d="M101.22,-430.76C102.55,-409.35 107.03,-372.52 121.93,-345 132.65,-325.18 151.1,-307.44 166.04,-295.16"/>
<text xml:space="preserve" text-anchor="middle" x="128.3" y="-358.73" font-family="Arial" font-size="12.00"> 3 </text>
</g>
<!-- zeeguu/operations&#45;&#45;tools/migrations -->
<g id="edge15" class="edge">
<title>zeeguu/operations&#45;&#45;tools/migrations</title>
<path fill="none" stroke="#00688b" stroke-opacity="0.298039" d="M99.65,-430.8C99.33,-425.2 98.98,-418.96 98.68,-413.25 94.61,-337.04 90.25,-246.06 88.49,-208.75"/>
<text xml:space="preserve" text-anchor="middle" x="100.59" y="-315.6" font-family="Arial" font-size="12.00"> 3 </text>
</g>
<!-- zeeguu/operations&#45;&#45;tools -->
<g id="edge18" class="edge">
<title>zeeguu/operations&#45;&#45;tools</title>
<path fill="none" stroke="#00688b" stroke-opacity="0.298039" d="M58.13,-430.82C32.07,-417.02 3.68,-394.89 3.68,-364 3.68,-364 3.68,-364 3.68,-189.5 3.68,-159.48 -32.7,-205.03 140.68,-122.25 142.27,-121.49 143.89,-120.69 145.52,-119.88"/>
<text xml:space="preserve" text-anchor="middle" x="10.05" y="-272.48" font-family="Arial" font-size="12.00"> 1 </text>
</g>
<!-- zeeguu/operations&#45;&#45;ROOT -->
<g id="edge14" class="edge">
<title>zeeguu/operations&#45;&#45;ROOT</title>
<path fill="none" stroke="#00688b" stroke-opacity="0.298039" d="M164.89,-442.09C248.39,-432.28 383.68,-409.37 383.68,-364 383.68,-364 383.68,-364 383.68,-103.25 383.68,-56.54 322.9,-34.01 286.11,-24.65"/>
<text xml:space="preserve" text-anchor="middle" x="390.05" y="-229.35" font-family="Arial" font-size="12.00"> 3 </text>
</g>
<!-- zeeguu/operations&#45;&#45;zeeguu/operations -->
<g id="edge20" class="edge">
<title>zeeguu/operations&#45;&#45;zeeguu/operations</title>
<path fill="none" stroke="#a0a0a0" stroke-opacity="0.298039" d="M164.87,-456.73C175.35,-455.66 182.55,-453.17 182.55,-449.25 182.55,-445.33 175.35,-442.84 164.87,-441.77"/>
<text xml:space="preserve" text-anchor="middle" x="188.93" y="-444.98" font-family="Arial" font-size="12.00"> 1 </text>
</g>
</g>
</svg>
