<svg width="1283pt" height="734pt"
 viewBox="0.00 0.00 1283.00 734.00" xmlns="http://www.w3.org/2000/svg" xmlns:xlink="http://www.w3.org/1999/xlink">
<g id="graph0" class="graph" transform="scale(1 1) rotate(0) translate(4 730)">
<title>G</title>
<polygon fill="white" stroke="none" points="-4,4 -4,-730 1278.5,-730 1278.5,4 -4,4"/>
<!-- mircea.lungu@gmail.com -->
<g id="node1" class="node">
<title>mircea.lungu@gmail.com</title>
<polygon fill="grey" stroke="white" points="1096,-726 924,-726 924,-690 1096,-690 1096,-726"/>
<text xml:space="preserve" text-anchor="middle" x="1010" y="-703.33" font-family="Tahoma" font-size="14.00">mircea.lungu@gmail.com</text>
</g>
<!-- gabortodor@gmail.com -->
<g id="node2" class="node">
<title>gabortodor@gmail.com</title>
<polygon fill="grey" stroke="white" points="577,-467.25 417,-467.25 417,-431.25 577,-431.25 577,-467.25"/>
<text xml:space="preserve" text-anchor="middle" x="497" y="-444.57" font-family="Tahoma" font-size="14.00">gabortodor@gmail.com</text>
</g>
<!-- mircea.lungu@gmail.com&#45;&#45;gabortodor@gmail.com -->
<g id="edge1" class="edge">
<title>mircea.lungu@gmail.com&#45;&#45;gabortodor@gmail.com</title>
<path fill="none" stroke="#00688b" stroke-width="10" d="M923.79,-701.55C870.92,-696.78 802.24,-687.98 743,-672 707.18,-662.34 699.14,-656.44 666,-639.75 599.03,-606.02 567.04,-612.68 521,-553.5 501.34,-528.23 497.32,-489.61 496.76,-467.46"/>
<text xml:space="preserve" text-anchor="middle" x="563.61" y="-574.35" font-family="Arial" font-size="12.00"> 111 </text>
</g>
<!-- nicra@itu.dk -->
<g id="node3" class="node">
<title>nicra@itu.dk</title>
<polygon fill="grey" stroke="white" points="667.88,-553.5 576.12,-553.5 576.12,-517.5 667.88,-517.5 667.88,-553.5"/>
<text xml:space="preserve" text-anchor="middle" x="622" y="-530.83" font-family="Tahoma" font-size="14.00">nicra@itu.dk</text>
</g>
<!-- mircea.lungu@gmail.com&#45;&#45;nicra@itu.dk -->
<g id="edge2" class="edge">
<title>mircea.lungu@gmail.com&#45;&#45;nicra@itu.dk</title>
<path fill="none" stroke="#00688b" stroke-width="8" stroke-opacity="0.858824" d="M923.63,-702.11C860.7,-695.24 775.46,-678.82 710.5,-639.75 674.69,-618.21 646.09,-577.1 631.85,-553.78"/>
<text xml:space="preserve" text-anchor="middle" x="720.25" y="-617.48" font-family="Arial" font-size="12.00"> 95 </text>
</g>
<!-- ada.lungu@gmail.com -->
<g id="node9" class="node">
<title>ada.lungu@gmail.com</title>
<polygon fill="grey" stroke="white" points="350.25,-294.75 197.75,-294.75 197.75,-258.75 350.25,-258.75 350.25,-294.75"/>
<text xml:space="preserve" text-anchor="middle" x="274" y="-272.07" font-family="Tahoma" font-size="14.00">ada.lungu@gmail.com</text>
</g>
<!-- mircea.lungu@gmail.com&#45;&#45;ada.lungu@gmail.com -->
<g id="edge29" class="edge">
<title>mircea.lungu@gmail.com&#45;&#45;ada.lungu@gmail.com</title>
<path fill="none" stroke="#00688b" stroke-opacity="0.298039" d="M923.81,-707.64C702.6,-708.13 132,-701.76 132,-622.75 132,-622.75 132,-622.75 132,-405.12 132,-374.66 205.36,-322.18 246.62,-295.08"/>
<text xml:space="preserve" text-anchor="middle" x="138.38" y="-488.1" font-family="Arial" font-size="12.00"> 6 </text>
</g>
<!-- jolb“itu.dk -->
<g id="node10" class="node">
<title>jolb“itu.dk</title>
<polygon fill="grey" stroke="white" points="815.38,-639.75 738.62,-639.75 738.62,-603.75 815.38,-603.75 815.38,-639.75"/>
<text xml:space="preserve" text-anchor="middle" x="777" y="-617.08" font-family="Tahoma" font-size="14.00">jolb“itu.dk</text>
</g>
<!-- mircea.lungu@gmail.com&#45;&#45;jolb“itu.dk -->
<g id="edge32" class="edge">
<title>mircea.lungu@gmail.com&#45;&#45;jolb“itu.dk</title>
<path fill="none" stroke="#00688b" stroke-opacity="0.298039" d="M961.72,-689.54C918.4,-673.88 855.65,-651.19 815.59,-636.7"/>
<text xml:space="preserve" text-anchor="middle" x="913.83" y="-660.6" font-family="Arial" font-size="12.00"> 3 </text>
</g>
<!-- 49699333+dependabot[bot]@users.noreply.github.com -->
<g id="node11" class="node">
<title>49699333+dependabot[bot]@users.noreply.github.com</title>
<polygon fill="grey" stroke="white" points="515.5,-122.25 160.5,-122.25 160.5,-86.25 515.5,-86.25 515.5,-122.25"/>
<text xml:space="preserve" text-anchor="middle" x="338" y="-99.58" font-family="Tahoma" font-size="14.00">49699333+dependabot[bot]@users.noreply.github.com</text>
</g>
<!-- mircea.lungu@gmail.com&#45;&#45;49699333+dependabot[bot]@users.noreply.github.com -->
<g id="edge33" class="edge">
<title>mircea.lungu@gmail.com&#45;&#45;49699333+dependabot[bot]@users.noreply.github.com</title>
<path fill="none" stroke="#00688b" stroke-opacity="0.298039" d="M923.73,-705.66C742.56,-702.46 327.75,-693.03 188,-672 102.59,-659.15 0,-709.13 0,-622.75 0,-622.75 0,-622.75 0,-232.62 0,-181.05 139.56,-143.16 239.33,-122.67"/>
<text xml:space="preserve" text-anchor="middle" x="6.38" y="-401.85" font-family="Arial" font-size="12.00"> 2 </text>
</g>
<!-- kalny.zalan7@gmail.com -->
<g id="node4" class="node">
<title>kalny.zalan7@gmail.com</title>
<polygon fill="grey" stroke="white" points="580.38,-381 413.62,-381 413.62,-345 580.38,-345 580.38,-381"/>
<text xml:space="preserve" text-anchor="middle" x="497" y="-358.32" font-family="Tahoma" font-size="14.00">kalny.zalan7@gmail.com</text>
</g>
<!-- gabortodor@gmail.com&#45;&#45;kalny.zalan7@gmail.com -->
<g id="edge4" class="edge">
<title>gabortodor@gmail.com&#45;&#45;kalny.zalan7@gmail.com</title>
<path fill="none" stroke="#00688b" stroke-width="6" stroke-opacity="0.717647" d="M497,-430.79C497,-416.33 497,-395.89 497,-381.43"/>
<text xml:space="preserve" text-anchor="middle" x="506.75" y="-401.85" font-family="Arial" font-size="12.00"> 73 </text>
</g>
<!-- 63254940+gabortodor@users.noreply.github.com -->
<g id="node5" class="node">
<title>63254940+gabortodor@users.noreply.github.com</title>
<polygon fill="grey" stroke="white" points="748.25,-36 427.75,-36 427.75,0 748.25,0 748.25,-36"/>
<text xml:space="preserve" text-anchor="middle" x="588" y="-13.32" font-family="Tahoma" font-size="14.00">63254940+gabortodor@users.noreply.github.com</text>
</g>
<!-- gabortodor@gmail.com&#45;&#45;63254940+gabortodor@users.noreply.github.com -->
<g id="edge5" class="edge">
<title>gabortodor@gmail.com&#45;&#45;63254940+gabortodor@users.noreply.github.com</title>
<path fill="none" stroke="#00688b" stroke-width="5" stroke-opacity="0.647059" d="M416.58,-431.71C394.77,-426.51 371.3,-420.28 350,-413.25 257.29,-382.67 208.57,-403.55 148,-327 122.15,-294.32 132,-276.29 132,-234.62 132,-234.62 132,-234.62 132,-103.25 132,-72.33 296.21,-48.18 427.55,-33.81"/>
<text xml:space="preserve" text-anchor="middle" x="141.75" y="-229.35" font-family="Arial" font-size="12.00"> 60 </text>
</g>
<!-- 72095082+klnyzzz33@users.noreply.github.com -->
<g id="node7" class="node">
<title>72095082+klnyzzz33@users.noreply.github.com</title>
<polygon fill="grey" stroke="white" points="897,-294.75 587,-294.75 587,-258.75 897,-258.75 897,-294.75"/>
<text xml:space="preserve" text-anchor="middle" x="742" y="-272.07" font-family="Tahoma" font-size="14.00">72095082+klnyzzz33@users.noreply.github.com</text>
</g>
<!-- gabortodor@gmail.com&#45;&#45;72095082+klnyzzz33@users.noreply.github.com -->
<g id="edge17" class="edge">
<title>gabortodor@gmail.com&#45;&#45;72095082+klnyzzz33@users.noreply.github.com</title>
<path fill="none" stroke="#00688b" stroke-width="2" stroke-opacity="0.439216" d="M572.7,-430.78C593.58,-425.15 612.98,-418.9 622,-413.25 671.8,-382.06 712.88,-324.14 731.4,-295.18"/>
<text xml:space="preserve" text-anchor="middle" x="705.08" y="-358.73" font-family="Arial" font-size="12.00"> 33 </text>
</g>
<!-- 98952123+xxpinkmagicxx@users.noreply.github.com -->
<g id="node8" class="node">
<title>98952123+xxpinkmagicxx@users.noreply.github.com</title>
<polygon fill="grey" stroke="white" points="1126.75,-122.25 785.25,-122.25 785.25,-86.25 1126.75,-86.25 1126.75,-122.25"/>
<text xml:space="preserve" text-anchor="middle" x="956" y="-99.58" font-family="Tahoma" font-size="14.00">98952123+xxpinkmagicxx@users.noreply.github.com</text>
</g>
<!-- gabortodor@gmail.com&#45;&#45;98952123+xxpinkmagicxx@users.noreply.github.com -->
<g id="edge18" class="edge">
<title>gabortodor@gmail.com&#45;&#45;98952123+xxpinkmagicxx@users.noreply.github.com</title>
<path fill="none" stroke="#00688b" stroke-width="2" stroke-opacity="0.439216" d="M577.05,-432.06C578.71,-431.78 580.37,-431.51 582,-431.25 706.87,-411.4 754.98,-448.31 862,-381 885.18,-366.42 968.6,-241.96 969,-240.75 983.19,-198.39 979.98,-184.01 971,-140.25 969.78,-134.29 967.5,-128.1 965.08,-122.6"/>
<text xml:space="preserve" text-anchor="middle" x="966.54" y="-272.48" font-family="Arial" font-size="12.00"> 30 </text>
</g>
<!-- gabortodor@gmail.com&#45;&#45;ada.lungu@gmail.com -->
<g id="edge31" class="edge">
<title>gabortodor@gmail.com&#45;&#45;ada.lungu@gmail.com</title>
<path fill="none" stroke="#00688b" stroke-opacity="0.298039" d="M416.73,-434.38C401.02,-429.36 385.31,-422.53 372,-413.25 327.46,-382.2 295.7,-324.21 281.81,-295.21"/>
<text xml:space="preserve" text-anchor="middle" x="343.09" y="-358.73" font-family="Arial" font-size="12.00"> 5 </text>
</g>
<!-- gabortodor@gmail.com&#45;&#45;49699333+dependabot[bot]@users.noreply.github.com -->
<g id="edge39" class="edge">
<title>gabortodor@gmail.com&#45;&#45;49699333+dependabot[bot]@users.noreply.github.com</title>
<path fill="none" stroke="#00688b" stroke-opacity="0.298039" d="M444.75,-430.88C415.96,-417.66 386,-396.18 386,-364 386,-364 386,-364 386,-189.5 386,-163.74 368.85,-138.68 355.06,-122.68"/>
<text xml:space="preserve" text-anchor="middle" x="392.38" y="-272.48" font-family="Arial" font-size="12.00"> 1 </text>
</g>
<!-- nicra@itu.dk&#45;&#45;gabortodor@gmail.com -->
<g id="edge11" class="edge">
<title>nicra@itu.dk&#45;&#45;gabortodor@gmail.com</title>
<path fill="none" stroke="#00688b" stroke-width="4" stroke-opacity="0.576471" d="M599.82,-517.03C587.21,-507.33 570.99,-495.25 556,-485.25 546.98,-479.24 536.92,-473.08 527.7,-467.63"/>
<text xml:space="preserve" text-anchor="middle" x="584.31" y="-488.1" font-family="Arial" font-size="12.00"> 53 </text>
</g>
<!-- nicra@itu.dk&#45;&#45;kalny.zalan7@gmail.com -->
<g id="edge12" class="edge">
<title>nicra@itu.dk&#45;&#45;kalny.zalan7@gmail.com</title>
<path fill="none" stroke="#00688b" stroke-width="4" stroke-opacity="0.576471" d="M619.2,-517.35C614.98,-495.61 605.34,-457.79 586,-431.25 570.83,-410.43 547.4,-393.09 528.39,-381.24"/>
<text xml:space="preserve" text-anchor="middle" x="614.38" y="-444.98" font-family="Arial" font-size="12.00"> 50 </text>
</g>
<!-- nicra@itu.dk&#45;&#45;63254940+gabortodor@users.noreply.github.com -->
<g id="edge15" class="edge">
<title>nicra@itu.dk&#45;&#45;63254940+gabortodor@users.noreply.github.com</title>
<path fill="none" stroke="#00688b" stroke-width="3" stroke-opacity="0.509804" d="M575.7,-518.61C574.12,-518.22 572.55,-517.84 571,-517.5 502.43,-502.31 482.94,-512.95 414,-499.5 252.85,-468.06 159.46,-450.17 106.5,-294.75 88.23,-241.12 46.64,-182.24 118,-86.25 142.36,-53.49 164.21,-63.1 204,-54 276.44,-37.43 358.25,-28.65 427.69,-24.02"/>
<text xml:space="preserve" text-anchor="middle" x="116.25" y="-272.48" font-family="Arial" font-size="12.00"> 44 </text>
</g>
<!-- nickras2001@gmail.com -->
<g id="node6" class="node">
<title>nickras2001@gmail.com</title>
<polygon fill="grey" stroke="white" points="824.25,-208.5 659.75,-208.5 659.75,-172.5 824.25,-172.5 824.25,-208.5"/>
<text xml:space="preserve" text-anchor="middle" x="742" y="-185.82" font-family="Tahoma" font-size="14.00">nickras2001@gmail.com</text>
</g>
<!-- nicra@itu.dk&#45;&#45;nickras2001@gmail.com -->
<g id="edge14" class="edge">
<title>nicra@itu.dk&#45;&#45;nickras2001@gmail.com</title>
<path fill="none" stroke="#00688b" stroke-width="4" stroke-opacity="0.576471" d="M658.7,-517.13C723.2,-484.27 854.87,-406.18 906,-294.75 912.67,-280.21 914.91,-272.04 906,-258.75 893.87,-240.67 845.05,-222.03 803.8,-208.97"/>
<text xml:space="preserve" text-anchor="middle" x="885.95" y="-358.73" font-family="Arial" font-size="12.00"> 48 </text>
</g>
<!-- nicra@itu.dk&#45;&#45;72095082+klnyzzz33@users.noreply.github.com -->
<g id="edge27" class="edge">
<title>nicra@itu.dk&#45;&#45;72095082+klnyzzz33@users.noreply.github.com</title>
<path fill="none" stroke="#00688b" stroke-opacity="0.368627" d="M635.8,-517.18C656.88,-489.85 696.99,-434.33 719,-381 730.91,-352.14 737.14,-316.08 739.99,-295.11"/>
<text xml:space="preserve" text-anchor="middle" x="720.24" y="-401.85" font-family="Arial" font-size="12.00"> 19 </text>
</g>
<!-- nicra@itu.dk&#45;&#45;98952123+xxpinkmagicxx@users.noreply.github.com -->
<g id="edge28" class="edge">
<title>nicra@itu.dk&#45;&#45;98952123+xxpinkmagicxx@users.noreply.github.com</title>
<path fill="none" stroke="#00688b" stroke-opacity="0.368627" d="M668.17,-530.23C744.77,-522.24 893.44,-502.54 931,-467.25 1028.5,-375.66 1004.29,-305.71 992,-172.5 990.66,-157.98 992.29,-153.4 986,-140.25 982.96,-133.9 978.47,-127.78 973.88,-122.48"/>
<text xml:space="preserve" text-anchor="middle" x="1013.65" y="-315.6" font-family="Arial" font-size="12.00"> 19 </text>
</g>
<!-- nicra@itu.dk&#45;&#45;49699333+dependabot[bot]@users.noreply.github.com -->
<g id="edge37" class="edge">
<title>nicra@itu.dk&#45;&#45;49699333+dependabot[bot]@users.noreply.github.com</title>
<path fill="none" stroke="#00688b" stroke-opacity="0.298039" d="M575.87,-519.07C574.23,-518.54 572.6,-518.01 571,-517.5 476.5,-487.19 170,-420.12 170,-320.88 170,-320.88 170,-320.88 170,-189.5 170,-155.08 198.53,-134.72 232.08,-122.68"/>
<text xml:space="preserve" text-anchor="middle" x="176.68" y="-315.6" font-family="Arial" font-size="12.00"> 1 </text>
</g>
<!-- kalny.zalan7@gmail.com&#45;&#45;mircea.lungu@gmail.com -->
<g id="edge3" class="edge">
<title>kalny.zalan7@gmail.com&#45;&#45;mircea.lungu@gmail.com</title>
<path fill="none" stroke="#00688b" stroke-width="6" stroke-opacity="0.717647" d="M580.84,-379.33C685.42,-402.74 862.96,-457.31 966,-571.5 996.82,-605.65 1006.08,-661.71 1008.84,-689.81"/>
<text xml:space="preserve" text-anchor="middle" x="956.09" y="-531.23" font-family="Arial" font-size="12.00"> 74 </text>
</g>
<!-- kalny.zalan7@gmail.com&#45;&#45;63254940+gabortodor@users.noreply.github.com -->
<g id="edge13" class="edge">
<title>kalny.zalan7@gmail.com&#45;&#45;63254940+gabortodor@users.noreply.github.com</title>
<path fill="none" stroke="#00688b" stroke-width="4" stroke-opacity="0.576471" d="M495.49,-344.57C494.16,-323.84 493.33,-288.31 500,-258.75 519.48,-172.47 562.04,-75.06 579.88,-36.27"/>
<text xml:space="preserve" text-anchor="middle" x="534.38" y="-186.22" font-family="Arial" font-size="12.00"> 50 </text>
</g>
<!-- kalny.zalan7@gmail.com&#45;&#45;nickras2001@gmail.com -->
<g id="edge9" class="edge">
<title>kalny.zalan7@gmail.com&#45;&#45;nickras2001@gmail.com</title>
<path fill="none" stroke="#00688b" stroke-width="4" stroke-opacity="0.576471" d="M497.13,-344.97C498.4,-314.97 505.9,-253.33 545,-226.5 563.62,-213.72 614.13,-204.9 659.34,-199.31"/>
<text xml:space="preserve" text-anchor="middle" x="526.45" y="-272.48" font-family="Arial" font-size="12.00"> 55 </text>
</g>
<!-- kalny.zalan7@gmail.com&#45;&#45;72095082+klnyzzz33@users.noreply.github.com -->
<g id="edge19" class="edge">
<title>kalny.zalan7@gmail.com&#45;&#45;72095082+klnyzzz33@users.noreply.github.com</title>
<path fill="none" stroke="#00688b" stroke-width="2" stroke-opacity="0.439216" d="M514.65,-344.6C526.62,-333.79 543.34,-320.52 560.5,-312.75 576.58,-305.47 594.13,-299.7 611.77,-295.14"/>
<text xml:space="preserve" text-anchor="middle" x="570.25" y="-315.6" font-family="Arial" font-size="12.00"> 30 </text>
</g>
<!-- kalny.zalan7@gmail.com&#45;&#45;98952123+xxpinkmagicxx@users.noreply.github.com -->
<g id="edge24" class="edge">
<title>kalny.zalan7@gmail.com&#45;&#45;98952123+xxpinkmagicxx@users.noreply.github.com</title>
<path fill="none" stroke="#00688b" stroke-width="2" stroke-opacity="0.439216" d="M580.7,-353.13C693.3,-340.46 882.27,-316.32 906,-294.75 956.1,-249.2 958.52,-159.96 957.12,-122.48"/>
<text xml:space="preserve" text-anchor="middle" x="954.97" y="-229.35" font-family="Arial" font-size="12.00"> 26 </text>
</g>
<!-- kalny.zalan7@gmail.com&#45;&#45;ada.lungu@gmail.com -->
<g id="edge30" class="edge">
<title>kalny.zalan7@gmail.com&#45;&#45;ada.lungu@gmail.com</title>
<path fill="none" stroke="#00688b" stroke-opacity="0.298039" d="M448.19,-344.61C432.82,-339.06 415.8,-332.84 400.25,-327 372.83,-316.69 342.22,-304.76 318.01,-295.23"/>
<text xml:space="preserve" text-anchor="middle" x="406.62" y="-315.6" font-family="Arial" font-size="12.00"> 5 </text>
</g>
<!-- kalny.zalan7@gmail.com&#45;&#45;49699333+dependabot[bot]@users.noreply.github.com -->
<g id="edge36" class="edge">
<title>kalny.zalan7@gmail.com&#45;&#45;49699333+dependabot[bot]@users.noreply.github.com</title>
<path fill="none" stroke="#00688b" stroke-opacity="0.298039" d="M468.04,-344.55C461.67,-339.57 455.49,-333.66 451,-327 402.88,-255.67 452.87,-208.13 400,-140.25 394.53,-133.23 387.23,-127.39 379.57,-122.62"/>
<text xml:space="preserve" text-anchor="middle" x="433.7" y="-229.35" font-family="Arial" font-size="12.00"> 1 </text>
</g>
<!-- 63254940+gabortodor@users.noreply.github.com&#45;&#45;mircea.lungu@gmail.com -->
<g id="edge8" class="edge">
<title>63254940+gabortodor@users.noreply.github.com&#45;&#45;mircea.lungu@gmail.com</title>
<path fill="none" stroke="#00688b" stroke-width="5" stroke-opacity="0.647059" d="M748.61,-23.73C945.98,-31.74 1255,-52.4 1255,-103.25 1255,-622.75 1255,-622.75 1255,-622.75 1255,-654.26 1232.05,-657.64 1204,-672 1170.95,-688.92 1131.06,-697.79 1096.08,-702.39"/>
<text xml:space="preserve" text-anchor="middle" x="1264.75" y="-358.73" font-family="Arial" font-size="12.00"> 58 </text>
</g>
<!-- nickras2001@gmail.com&#45;&#45;mircea.lungu@gmail.com -->
<g id="edge7" class="edge">
<title>nickras2001@gmail.com&#45;&#45;mircea.lungu@gmail.com</title>
<path fill="none" stroke="#00688b" stroke-width="5" stroke-opacity="0.647059" d="M824.4,-207.78C825.94,-208.03 827.48,-208.27 829,-208.5 830.71,-208.76 1133,-213.32 1133,-275.75 1133,-622.75 1133,-622.75 1133,-622.75 1133,-655.75 1102.49,-676.78 1071.86,-689.57"/>
<text xml:space="preserve" text-anchor="middle" x="1142.75" y="-444.98" font-family="Arial" font-size="12.00"> 59 </text>
</g>
<!-- nickras2001@gmail.com&#45;&#45;gabortodor@gmail.com -->
<g id="edge6" class="edge">
<title>nickras2001@gmail.com&#45;&#45;gabortodor@gmail.com</title>
<path fill="none" stroke="#00688b" stroke-width="5" stroke-opacity="0.647059" d="M659.5,-205.27C628.59,-214.87 596.51,-231.15 578,-258.75 569.09,-272.04 576.28,-278.84 578,-294.75 582.16,-333.17 606.49,-346.54 589,-381 577.8,-403.05 555.61,-419.6 535.82,-430.77"/>
<text xml:space="preserve" text-anchor="middle" x="596.5" y="-315.6" font-family="Arial" font-size="12.00"> 60 </text>
</g>
<!-- nickras2001@gmail.com&#45;&#45;63254940+gabortodor@users.noreply.github.com -->
<g id="edge10" class="edge">
<title>nickras2001@gmail.com&#45;&#45;63254940+gabortodor@users.noreply.github.com</title>
<path fill="none" stroke="#00688b" stroke-width="4" stroke-opacity="0.576471" d="M727.9,-172.41C706.2,-146.32 663.03,-95.23 624,-54 618.37,-48.05 612.02,-41.75 606.24,-36.16"/>
<text xml:space="preserve" text-anchor="middle" x="693.93" y="-99.97" font-family="Arial" font-size="12.00"> 54 </text>
</g>
<!-- nickras2001@gmail.com&#45;&#45;98952123+xxpinkmagicxx@users.noreply.github.com -->
<g id="edge23" class="edge">
<title>nickras2001@gmail.com&#45;&#45;98952123+xxpinkmagicxx@users.noreply.github.com</title>
<path fill="none" stroke="#00688b" stroke-width="2" stroke-opacity="0.439216" d="M783.7,-172.1C806.85,-162.53 836.19,-150.55 862.5,-140.25 877.51,-134.37 893.95,-128.15 908.81,-122.6"/>
<text xml:space="preserve" text-anchor="middle" x="872.25" y="-143.1" font-family="Arial" font-size="12.00"> 27 </text>
</g>
<!-- nickras2001@gmail.com&#45;&#45;49699333+dependabot[bot]@users.noreply.github.com -->
<g id="edge38" class="edge">
<title>nickras2001@gmail.com&#45;&#45;49699333+dependabot[bot]@users.noreply.github.com</title>
<path fill="none" stroke="#00688b" stroke-opacity="0.298039" d="M710.54,-172.17C689.27,-161.24 660.21,-147.82 633,-140.25 595.73,-129.89 554.98,-122.59 515.99,-117.46"/>
<text xml:space="preserve" text-anchor="middle" x="676.5" y="-143.1" font-family="Arial" font-size="12.00"> 1 </text>
</g>
<!-- 72095082+klnyzzz33@users.noreply.github.com&#45;&#45;mircea.lungu@gmail.com -->
<g id="edge16" class="edge">
<title>72095082+klnyzzz33@users.noreply.github.com&#45;&#45;mircea.lungu@gmail.com</title>
<path fill="none" stroke="#00688b" stroke-width="3" stroke-opacity="0.509804" d="M897.33,-292.9C963.18,-299.96 1026.25,-307.87 1032,-312.75 1063.52,-339.5 1084,-450.03 1084,-491.38 1084,-622.75 1084,-622.75 1084,-622.75 1084,-651.37 1059.6,-674.9 1038.82,-689.75"/>
<text xml:space="preserve" text-anchor="middle" x="1093.75" y="-488.1" font-family="Arial" font-size="12.00"> 34 </text>
</g>
<!-- 72095082+klnyzzz33@users.noreply.github.com&#45;&#45;63254940+gabortodor@users.noreply.github.com -->
<g id="edge20" class="edge">
<title>72095082+klnyzzz33@users.noreply.github.com&#45;&#45;63254940+gabortodor@users.noreply.github.com</title>
<path fill="none" stroke="#00688b" stroke-width="2" stroke-opacity="0.439216" d="M711.09,-258.41C678.7,-238.25 629.77,-201.62 609.5,-154.5 592.37,-114.68 588.73,-62.99 588.06,-36.44"/>
<text xml:space="preserve" text-anchor="middle" x="619.25" y="-143.1" font-family="Arial" font-size="12.00"> 28 </text>
</g>
<!-- 72095082+klnyzzz33@users.noreply.github.com&#45;&#45;nickras2001@gmail.com -->
<g id="edge22" class="edge">
<title>72095082+klnyzzz33@users.noreply.github.com&#45;&#45;nickras2001@gmail.com</title>
<path fill="none" stroke="#00688b" stroke-width="2" stroke-opacity="0.439216" d="M742,-258.29C742,-243.83 742,-223.39 742,-208.93"/>
<text xml:space="preserve" text-anchor="middle" x="751.75" y="-229.35" font-family="Arial" font-size="12.00"> 27 </text>
</g>
<!-- 72095082+klnyzzz33@users.noreply.github.com&#45;&#45;98952123+xxpinkmagicxx@users.noreply.github.com -->
<g id="edge25" class="edge">
<title>72095082+klnyzzz33@users.noreply.github.com&#45;&#45;98952123+xxpinkmagicxx@users.noreply.github.com</title>
<path fill="none" stroke="#00688b" stroke-width="2" stroke-opacity="0.439216" d="M766.25,-258.45C784.77,-245.1 810.78,-226.01 833,-208.5 870.23,-179.16 912.25,-143.26 936.29,-122.45"/>
<text xml:space="preserve" text-anchor="middle" x="886.56" y="-186.22" font-family="Arial" font-size="12.00"> 24 </text>
</g>
<!-- 98952123+xxpinkmagicxx@users.noreply.github.com&#45;&#45;mircea.lungu@gmail.com -->
<g id="edge26" class="edge">
<title>98952123+xxpinkmagicxx@users.noreply.github.com&#45;&#45;mircea.lungu@gmail.com</title>
<path fill="none" stroke="#00688b" stroke-width="2" stroke-opacity="0.439216" d="M1070.66,-122.68C1137.6,-136.21 1209,-158.02 1209,-189.5 1209,-622.75 1209,-622.75 1209,-622.75 1209,-674.99 1150.12,-695.33 1096.42,-703.01"/>
<text xml:space="preserve" text-anchor="middle" x="1218.75" y="-401.85" font-family="Arial" font-size="12.00"> 23 </text>
</g>
<!-- 98952123+xxpinkmagicxx@users.noreply.github.com&#45;&#45;63254940+gabortodor@users.noreply.github.com -->
<g id="edge21" class="edge">
<title>98952123+xxpinkmagicxx@users.noreply.github.com&#45;&#45;63254940+gabortodor@users.noreply.github.com</title>
<path fill="none" stroke="#00688b" stroke-width="2" stroke-opacity="0.439216" d="M882.68,-85.82C842.37,-76.3 791.46,-64.36 746,-54 720.52,-48.19 692.71,-41.98 667.61,-36.43"/>
<text xml:space="preserve" text-anchor="middle" x="813.48" y="-56.85" font-family="Arial" font-size="12.00"> 27 </text>
</g>
<!-- jolb“itu.dk&#45;&#45;gabortodor@gmail.com -->
<g id="edge35" class="edge">
<title>jolb“itu.dk&#45;&#45;gabortodor@gmail.com</title>
<path fill="none" stroke="#00688b" stroke-opacity="0.298039" d="M738.26,-617.87C690.29,-612.49 608.33,-597.13 554.25,-553.5 526.17,-530.85 509.64,-490.54 502.05,-467.56"/>
<text xml:space="preserve" text-anchor="middle" x="560.62" y="-531.23" font-family="Arial" font-size="12.00"> 2 </text>
</g>
<!-- jolb“itu.dk&#45;&#45;nicra@itu.dk -->
<g id="edge34" class="edge">
<title>jolb“itu.dk&#45;&#45;nicra@itu.dk</title>
<path fill="none" stroke="#00688b" stroke-opacity="0.298039" d="M744.88,-603.29C718.28,-588.83 680.67,-568.39 654.07,-553.93"/>
<text xml:space="preserve" text-anchor="middle" x="715.16" y="-574.35" font-family="Arial" font-size="12.00"> 2 </text>
</g>
<!-- jolb“itu.dk&#45;&#45;kalny.zalan7@gmail.com -->
<g id="edge41" class="edge">
<title>jolb“itu.dk&#45;&#45;kalny.zalan7@gmail.com</title>
<path fill="none" stroke="#00688b" stroke-opacity="0.298039" d="M738.24,-604.9C736.82,-604.49 735.4,-604.1 734,-603.75 666.74,-586.86 645.01,-607.01 579,-585.75 490.99,-557.41 449,-550.13 408,-467.25 400.91,-452.91 400.87,-445.57 408,-431.25 418.96,-409.23 440.95,-392.51 460.33,-381.25"/>
<text xml:space="preserve" text-anchor="middle" x="432.56" y="-488.1" font-family="Arial" font-size="12.00"> 1 </text>
</g>
<!-- jolb“itu.dk&#45;&#45;63254940+gabortodor@users.noreply.github.com -->
<g id="edge42" class="edge">
<title>jolb“itu.dk&#45;&#45;63254940+gabortodor@users.noreply.github.com</title>
<path fill="none" stroke="#00688b" stroke-opacity="0.298039" d="M738.25,-604.85C736.83,-604.45 735.41,-604.08 734,-603.75 645.86,-582.88 620.62,-598.86 531,-585.75 436.51,-571.93 179.63,-564.86 110,-499.5 21.05,-416.01 38,-356.62 38,-234.62 38,-234.62 38,-234.62 38,-103.25 38,-55.69 87.26,-67.03 133,-54 186.67,-38.71 319.06,-29.65 427.27,-24.59"/>
<text xml:space="preserve" text-anchor="middle" x="43.14" y="-315.6" font-family="Arial" font-size="12.00"> 1 </text>
</g>
<!-- jolb“itu.dk&#45;&#45;nickras2001@gmail.com -->
<g id="edge40" class="edge">
<title>jolb“itu.dk&#45;&#45;nickras2001@gmail.com</title>
<path fill="none" stroke="#00688b" stroke-opacity="0.298039" d="M815.87,-616.62C843.33,-612.27 880.06,-603.45 908,-585.75 950.42,-558.87 956.91,-543.57 981,-499.5 1022.38,-423.79 1061.38,-394.57 1034,-312.75 1018.77,-267.23 1010.5,-250.62 969,-226.5 914.76,-194.98 890.93,-218.52 829,-208.5 827.48,-208.25 825.95,-208 824.4,-207.74"/>
<text xml:space="preserve" text-anchor="middle" x="1043.25" y="-401.85" font-family="Arial" font-size="12.00"> 1 </text>
</g>
<!-- jolb“itu.dk&#45;&#45;72095082+klnyzzz33@users.noreply.github.com -->
<g id="edge44" class="edge">
<title>jolb“itu.dk&#45;&#45;72095082+klnyzzz33@users.noreply.github.com</title>
<path fill="none" stroke="#00688b" stroke-opacity="0.298039" d="M815.53,-614.1C856.05,-604.65 914,-582.99 914,-536.5 914,-536.5 914,-536.5 914,-405.12 914,-348.09 852.16,-313.66 802.64,-295.23"/>
<text xml:space="preserve" text-anchor="middle" x="920.38" y="-444.98" font-family="Arial" font-size="12.00"> 1 </text>
</g>
<!-- jolb“itu.dk&#45;&#45;98952123+xxpinkmagicxx@users.noreply.github.com -->
<g id="edge43" class="edge">
<title>jolb“itu.dk&#45;&#45;98952123+xxpinkmagicxx@users.noreply.github.com</title>
<path fill="none" stroke="#00688b" stroke-opacity="0.298039" d="M815.82,-616.82C848.16,-612.44 894.76,-603.48 932,-585.75 952.93,-575.79 957.65,-570.88 973,-553.5 1023.94,-495.82 1133.09,-295.91 1147,-240.75 1162.58,-178.96 1087.47,-142.03 1026.89,-122.69"/>
<text xml:space="preserve" text-anchor="middle" x="1106.97" y="-358.73" font-family="Arial" font-size="12.00"> 1 </text>
</g>
</g>
</svg>
