<svg width="718pt" height="562pt"
 viewBox="0.00 0.00 718.00 562.00" xmlns="http://www.w3.org/2000/svg" xmlns:xlink="http://www.w3.org/1999/xlink">
<g id="graph0" class="graph" transform="scale(1 1) rotate(0) translate(4 557.5)">
<title>G</title>
<polygon fill="white" stroke="none" points="-4,4 -4,-557.5 713.5,-557.5 713.5,4 -4,4"/>
<!-- mircea.lungu@gmail.com -->
<g id="node1" class="node">
<title>mircea.lungu@gmail.com</title>
<polygon fill="grey" stroke="white" points="632,-553.5 460,-553.5 460,-517.5 632,-517.5 632,-553.5"/>
<text xml:space="preserve" text-anchor="middle" x="546" y="-530.83" font-family="Tahoma" font-size="14.00">mircea.lungu@gmail.com</text>
</g>
<!-- gabortodor@gmail.com -->
<g id="node2" class="node">
<title>gabortodor@gmail.com</title>
<polygon fill="grey" stroke="white" points="387,-467.25 227,-467.25 227,-431.25 387,-431.25 387,-467.25"/>
<text xml:space="preserve" text-anchor="middle" x="307" y="-444.57" font-family="Tahoma" font-size="14.00">gabortodor@gmail.com</text>
</g>
<!-- mircea.lungu@gmail.com&#45;&#45;gabortodor@gmail.com -->
<g id="edge1" class="edge">
<title>mircea.lungu@gmail.com&#45;&#45;gabortodor@gmail.com</title>
<path fill="none" stroke="#00688b" stroke-width="10" d="M496.48,-517.04C455.46,-502.58 397.46,-482.14 356.46,-467.68"/>
<text xml:space="preserve" text-anchor="middle" x="450.56" y="-488.1" font-family="Arial" font-size="12.00"> 49 </text>
</g>
<!-- 63254940+gabortodor@users.noreply.github.com -->
<g id="node3" class="node">
<title>63254940+gabortodor@users.noreply.github.com</title>
<polygon fill="grey" stroke="white" points="568.25,-381 247.75,-381 247.75,-345 568.25,-345 568.25,-381"/>
<text xml:space="preserve" text-anchor="middle" x="408" y="-358.32" font-family="Tahoma" font-size="14.00">63254940+gabortodor@users.noreply.github.com</text>
</g>
<!-- mircea.lungu@gmail.com&#45;&#45;63254940+gabortodor@users.noreply.github.com -->
<g id="edge2" class="edge">
<title>mircea.lungu@gmail.com&#45;&#45;63254940+gabortodor@users.noreply.github.com</title>
<path fill="none" stroke="#00688b" stroke-width="8" stroke-opacity="0.858824" d="M532.01,-517.21C505.56,-484.53 448.51,-414.05 422.03,-381.33"/>
<text xml:space="preserve" text-anchor="middle" x="500.47" y="-444.98" font-family="Arial" font-size="12.00"> 42 </text>
</g>
<!-- 72095082+klnyzzz33@users.noreply.github.com -->
<g id="node4" class="node">
<title>72095082+klnyzzz33@users.noreply.github.com</title>
<polygon fill="grey" stroke="white" points="422,-294.75 112,-294.75 112,-258.75 422,-258.75 422,-294.75"/>
<text xml:space="preserve" text-anchor="middle" x="267" y="-272.07" font-family="Tahoma" font-size="14.00">72095082+klnyzzz33@users.noreply.github.com</text>
</g>
<!-- mircea.lungu@gmail.com&#45;&#45;72095082+klnyzzz33@users.noreply.github.com -->
<g id="edge4" class="edge">
<title>mircea.lungu@gmail.com&#45;&#45;72095082+klnyzzz33@users.noreply.github.com</title>
<path fill="none" stroke="#00688b" stroke-width="4" stroke-opacity="0.576471" d="M459.69,-533.81C389.47,-529.47 290.48,-514.4 218,-467.25 149.44,-422.64 67.2,-376.86 118,-312.75 123.61,-305.67 136.75,-299.88 153.03,-295.2"/>
<text xml:space="preserve" text-anchor="middle" x="149.6" y="-401.85" font-family="Arial" font-size="12.00"> 23 </text>
</g>
<!-- nickras2001@gmail.com -->
<g id="node5" class="node">
<title>nickras2001@gmail.com</title>
<polygon fill="grey" stroke="white" points="344.25,-208.5 179.75,-208.5 179.75,-172.5 344.25,-172.5 344.25,-208.5"/>
<text xml:space="preserve" text-anchor="middle" x="262" y="-185.82" font-family="Tahoma" font-size="14.00">nickras2001@gmail.com</text>
</g>
<!-- mircea.lungu@gmail.com&#45;&#45;nickras2001@gmail.com -->
<g id="edge5" class="edge">
<title>mircea.lungu@gmail.com&#45;&#45;nickras2001@gmail.com</title>
<path fill="none" stroke="#00688b" stroke-width="4" stroke-opacity="0.576471" d="M459.76,-528.65C316.73,-517.77 46,-491.71 46,-450.25 46,-450.25 46,-450.25 46,-275.75 46,-245.91 118.44,-222.38 179.42,-207.85"/>
<text xml:space="preserve" text-anchor="middle" x="55.75" y="-358.73" font-family="Arial" font-size="12.00"> 23 </text>
</g>
<!-- 98952123+xxpinkmagicxx@users.noreply.github.com -->
<g id="node7" class="node">
<title>98952123+xxpinkmagicxx@users.noreply.github.com</title>
<polygon fill="grey" stroke="white" points="590.75,-36 249.25,-36 249.25,0 590.75,0 590.75,-36"/>
<text xml:space="preserve" text-anchor="middle" x="420" y="-13.32" font-family="Tahoma" font-size="14.00">98952123+xxpinkmagicxx@users.noreply.github.com</text>
</g>
<!-- mircea.lungu@gmail.com&#45;&#45;98952123+xxpinkmagicxx@users.noreply.github.com -->
<g id="edge15" class="edge">
<title>mircea.lungu@gmail.com&#45;&#45;98952123+xxpinkmagicxx@users.noreply.github.com</title>
<path fill="none" stroke="#00688b" stroke-width="3" stroke-opacity="0.509804" d="M626.84,-517.09C659.66,-504.82 690,-484.28 690,-450.25 690,-450.25 690,-450.25 690,-103.25 690,-70.96 618.76,-49.62 549.46,-36.49"/>
<text xml:space="preserve" text-anchor="middle" x="699.75" y="-272.48" font-family="Arial" font-size="12.00"> 17 </text>
</g>
<!-- gabortodor@gmail.com&#45;&#45;63254940+gabortodor@users.noreply.github.com -->
<g id="edge3" class="edge">
<title>gabortodor@gmail.com&#45;&#45;63254940+gabortodor@users.noreply.github.com</title>
<path fill="none" stroke="#00688b" stroke-width="8" stroke-opacity="0.858824" d="M327.93,-430.79C345.26,-416.33 369.77,-395.89 387.1,-381.43"/>
<text xml:space="preserve" text-anchor="middle" x="373.3" y="-401.85" font-family="Arial" font-size="12.00"> 42 </text>
</g>
<!-- gabortodor@gmail.com&#45;&#45;72095082+klnyzzz33@users.noreply.github.com -->
<g id="edge8" class="edge">
<title>gabortodor@gmail.com&#45;&#45;72095082+klnyzzz33@users.noreply.github.com</title>
<path fill="none" stroke="#00688b" stroke-width="4" stroke-opacity="0.576471" d="M270.93,-430.86C251.87,-419.55 230.25,-402.83 219.5,-381 204.76,-351.09 230.18,-315.67 249.16,-295.05"/>
<text xml:space="preserve" text-anchor="middle" x="229.25" y="-358.73" font-family="Arial" font-size="12.00"> 22 </text>
</g>
<!-- gabortodor@gmail.com&#45;&#45;nickras2001@gmail.com -->
<g id="edge9" class="edge">
<title>gabortodor@gmail.com&#45;&#45;nickras2001@gmail.com</title>
<path fill="none" stroke="#00688b" stroke-width="4" stroke-opacity="0.576471" d="M262.13,-430.76C211.54,-408.15 132.5,-363.36 103,-294.75 96.68,-280.05 94.16,-272.09 103,-258.75 120.39,-232.52 150.26,-216.49 179.45,-206.71"/>
<text xml:space="preserve" text-anchor="middle" x="130.87" y="-315.6" font-family="Arial" font-size="12.00"> 21 </text>
</g>
<!-- kalny.zalan7@gmail.com -->
<g id="node6" class="node">
<title>kalny.zalan7@gmail.com</title>
<polygon fill="grey" stroke="white" points="662.38,-122.25 495.62,-122.25 495.62,-86.25 662.38,-86.25 662.38,-122.25"/>
<text xml:space="preserve" text-anchor="middle" x="579" y="-99.58" font-family="Tahoma" font-size="14.00">kalny.zalan7@gmail.com</text>
</g>
<!-- gabortodor@gmail.com&#45;&#45;kalny.zalan7@gmail.com -->
<g id="edge17" class="edge">
<title>gabortodor@gmail.com&#45;&#45;kalny.zalan7@gmail.com</title>
<path fill="none" stroke="#00688b" stroke-width="3" stroke-opacity="0.509804" d="M387.18,-437.08C456.49,-425.88 549.72,-406.64 577,-381 597.42,-361.81 596,-348.9 596,-320.88 596,-320.88 596,-320.88 596,-189.5 596,-165.92 589.52,-139.36 584.57,-122.47"/>
<text xml:space="preserve" text-anchor="middle" x="605.75" y="-272.48" font-family="Arial" font-size="12.00"> 16 </text>
</g>
<!-- gabortodor@gmail.com&#45;&#45;98952123+xxpinkmagicxx@users.noreply.github.com -->
<g id="edge16" class="edge">
<title>gabortodor@gmail.com&#45;&#45;98952123+xxpinkmagicxx@users.noreply.github.com</title>
<path fill="none" stroke="#00688b" stroke-width="3" stroke-opacity="0.509804" d="M226.74,-448.02C135.78,-443.02 0,-419.12 0,-320.88 0,-320.88 0,-320.88 0,-103.25 0,-49.75 132.66,-29.77 248.87,-22.54"/>
<text xml:space="preserve" text-anchor="middle" x="9.75" y="-229.35" font-family="Arial" font-size="12.00"> 17 </text>
</g>
<!-- 63254940+gabortodor@users.noreply.github.com&#45;&#45;72095082+klnyzzz33@users.noreply.github.com -->
<g id="edge6" class="edge">
<title>63254940+gabortodor@users.noreply.github.com&#45;&#45;72095082+klnyzzz33@users.noreply.github.com</title>
<path fill="none" stroke="#00688b" stroke-width="4" stroke-opacity="0.576471" d="M378.78,-344.54C354.59,-330.08 320.37,-309.64 296.18,-295.18"/>
<text xml:space="preserve" text-anchor="middle" x="355.69" y="-315.6" font-family="Arial" font-size="12.00"> 23 </text>
</g>
<!-- 63254940+gabortodor@users.noreply.github.com&#45;&#45;nickras2001@gmail.com -->
<g id="edge7" class="edge">
<title>63254940+gabortodor@users.noreply.github.com&#45;&#45;nickras2001@gmail.com</title>
<path fill="none" stroke="#00688b" stroke-width="4" stroke-opacity="0.576471" d="M419.31,-344.77C432.06,-322.95 448.84,-285.04 431,-258.75 411.41,-229.87 377.25,-213.4 344.74,-203.99"/>
<text xml:space="preserve" text-anchor="middle" x="448.51" y="-272.48" font-family="Arial" font-size="12.00"> 23 </text>
</g>
<!-- 63254940+gabortodor@users.noreply.github.com&#45;&#45;kalny.zalan7@gmail.com -->
<g id="edge10" class="edge">
<title>63254940+gabortodor@users.noreply.github.com&#45;&#45;kalny.zalan7@gmail.com</title>
<path fill="none" stroke="#00688b" stroke-width="4" stroke-opacity="0.576471" d="M495.44,-344.63C504.56,-340.06 513.02,-334.28 520,-327 548.66,-297.08 569.7,-169.39 576.58,-122.56"/>
<text xml:space="preserve" text-anchor="middle" x="566.86" y="-229.35" font-family="Arial" font-size="12.00"> 20 </text>
</g>
<!-- 63254940+gabortodor@users.noreply.github.com&#45;&#45;98952123+xxpinkmagicxx@users.noreply.github.com -->
<g id="edge13" class="edge">
<title>63254940+gabortodor@users.noreply.github.com&#45;&#45;98952123+xxpinkmagicxx@users.noreply.github.com</title>
<path fill="none" stroke="#00688b" stroke-width="3" stroke-opacity="0.509804" d="M428.81,-344.57C434.45,-339.27 440.3,-333.2 445,-327 478.52,-282.83 477.09,-263.51 484,-208.5 492.28,-142.52 452.36,-69.21 431.72,-36.46"/>
<text xml:space="preserve" text-anchor="middle" x="494.86" y="-186.22" font-family="Arial" font-size="12.00"> 18 </text>
</g>
<!-- 72095082+klnyzzz33@users.noreply.github.com&#45;&#45;nickras2001@gmail.com -->
<g id="edge14" class="edge">
<title>72095082+klnyzzz33@users.noreply.github.com&#45;&#45;nickras2001@gmail.com</title>
<path fill="none" stroke="#00688b" stroke-width="3" stroke-opacity="0.509804" d="M265.96,-258.29C265.11,-243.83 263.89,-223.39 263.03,-208.93"/>
<text xml:space="preserve" text-anchor="middle" x="274.55" y="-229.35" font-family="Arial" font-size="12.00"> 18 </text>
</g>
<!-- 72095082+klnyzzz33@users.noreply.github.com&#45;&#45;kalny.zalan7@gmail.com -->
<g id="edge18" class="edge">
<title>72095082+klnyzzz33@users.noreply.github.com&#45;&#45;kalny.zalan7@gmail.com</title>
<path fill="none" stroke="#00688b" stroke-width="3" stroke-opacity="0.509804" d="M344.18,-258.33C358.53,-253.63 373.06,-247.83 386,-240.75 426.55,-218.55 426.96,-199.49 464.5,-172.5 490.61,-153.73 522.26,-135.44 545.67,-122.69"/>
<text xml:space="preserve" text-anchor="middle" x="474.25" y="-186.22" font-family="Arial" font-size="12.00"> 16 </text>
</g>
<!-- 72095082+klnyzzz33@users.noreply.github.com&#45;&#45;98952123+xxpinkmagicxx@users.noreply.github.com -->
<g id="edge12" class="edge">
<title>72095082+klnyzzz33@users.noreply.github.com&#45;&#45;98952123+xxpinkmagicxx@users.noreply.github.com</title>
<path fill="none" stroke="#00688b" stroke-width="3" stroke-opacity="0.509804" d="M298.45,-258.51C317.01,-246.76 339.45,-229.53 353,-208.5 369.9,-182.26 359.8,-169.91 369.5,-140.25 381.9,-102.32 400.94,-59.59 411.76,-36.34"/>
<text xml:space="preserve" text-anchor="middle" x="379.25" y="-143.1" font-family="Arial" font-size="12.00"> 19 </text>
</g>
<!-- nickras2001@gmail.com&#45;&#45;kalny.zalan7@gmail.com -->
<g id="edge19" class="edge">
<title>nickras2001@gmail.com&#45;&#45;kalny.zalan7@gmail.com</title>
<path fill="none" stroke="#00688b" stroke-width="3" stroke-opacity="0.509804" d="M341.85,-172.04C359.03,-167.22 376.87,-161.38 393,-154.5 404.24,-149.71 405.15,-144.77 416.5,-140.25 441.3,-130.38 469.4,-123.08 495.17,-117.77"/>
<text xml:space="preserve" text-anchor="middle" x="426.25" y="-143.1" font-family="Arial" font-size="12.00"> 16 </text>
</g>
<!-- kalny.zalan7@gmail.com&#45;&#45;mircea.lungu@gmail.com -->
<g id="edge11" class="edge">
<title>kalny.zalan7@gmail.com&#45;&#45;mircea.lungu@gmail.com</title>
<path fill="none" stroke="#00688b" stroke-width="4" stroke-opacity="0.576471" d="M603.57,-122.68C621.98,-137.95 644,-161.97 644,-189.5 644,-450.25 644,-450.25 644,-450.25 644,-481.21 615.52,-503.28 589.27,-517.04"/>
<text xml:space="preserve" text-anchor="middle" x="653.75" y="-315.6" font-family="Arial" font-size="12.00"> 20 </text>
</g>
<!-- kalny.zalan7@gmail.com&#45;&#45;98952123+xxpinkmagicxx@users.noreply.github.com -->
<g id="edge21" class="edge">
<title>kalny.zalan7@gmail.com&#45;&#45;98952123+xxpinkmagicxx@users.noreply.github.com</title>
<path fill="none" stroke="#00688b" stroke-width="2" stroke-opacity="0.439216" d="M546.06,-85.79C518.77,-71.33 480.18,-50.89 452.9,-36.43"/>
<text xml:space="preserve" text-anchor="middle" x="518.77" y="-56.85" font-family="Arial" font-size="12.00"> 12 </text>
</g>
<!-- 98952123+xxpinkmagicxx@users.noreply.github.com&#45;&#45;nickras2001@gmail.com -->
<g id="edge20" class="edge">
<title>98952123+xxpinkmagicxx@users.noreply.github.com&#45;&#45;nickras2001@gmail.com</title>
<path fill="none" stroke="#00688b" stroke-width="2" stroke-opacity="0.439216" d="M382.79,-36.49C374.15,-41.47 365.34,-47.38 358,-54 318.4,-89.73 285.9,-144.58 270.92,-172.26"/>
<text xml:space="preserve" text-anchor="middle" x="336.73" y="-99.97" font-family="Arial" font-size="12.00"> 14 </text>
</g>
</g>
</svg>
