<svg width="1077pt" height="648pt"
 viewBox="0.00 0.00 1077.00 648.00" xmlns="http://www.w3.org/2000/svg" xmlns:xlink="http://www.w3.org/1999/xlink">
<g id="graph0" class="graph" transform="scale(1 1) rotate(0) translate(4 643.75)">
<title>G</title>
<polygon fill="white" stroke="none" points="-4,4 -4,-643.75 1072.5,-643.75 1072.5,4 -4,4"/>
<!-- mircea.lungu@gmail.com -->
<g id="node1" class="node">
<title>mircea.lungu@gmail.com</title>
<polygon fill="grey" stroke="white" points="789,-639.75 617,-639.75 617,-603.75 789,-603.75 789,-639.75"/>
<text xml:space="preserve" text-anchor="middle" x="703" y="-617.08" font-family="Tahoma" font-size="14.00">mircea.lungu@gmail.com</text>
</g>
<!-- gabortodor@gmail.com -->
<g id="node2" class="node">
<title>gabortodor@gmail.com</title>
<polygon fill="grey" stroke="white" points="445,-467.25 285,-467.25 285,-431.25 445,-431.25 445,-467.25"/>
<text xml:space="preserve" text-anchor="middle" x="365" y="-444.57" font-family="Tahoma" font-size="14.00">gabortodor@gmail.com</text>
</g>
<!-- mircea.lungu@gmail.com&#45;&#45;gabortodor@gmail.com -->
<g id="edge1" class="edge">
<title>mircea.lungu@gmail.com&#45;&#45;gabortodor@gmail.com</title>
<path fill="none" stroke="#00688b" stroke-width="10" d="M616.61,-615.57C559.78,-608.47 486.21,-591.9 432.25,-553.5 401.4,-531.55 381.06,-490.59 371.45,-467.41"/>
<text xml:space="preserve" text-anchor="middle" x="444.62" y="-531.23" font-family="Arial" font-size="12.00"> 111 </text>
</g>
<!-- nicra@itu.dk -->
<g id="node3" class="node">
<title>nicra@itu.dk</title>
<polygon fill="grey" stroke="white" points="557.88,-553.5 466.12,-553.5 466.12,-517.5 557.88,-517.5 557.88,-553.5"/>
<text xml:space="preserve" text-anchor="middle" x="512" y="-530.83" font-family="Tahoma" font-size="14.00">nicra@itu.dk</text>
</g>
<!-- mircea.lungu@gmail.com&#45;&#45;nicra@itu.dk -->
<g id="edge2" class="edge">
<title>mircea.lungu@gmail.com&#45;&#45;nicra@itu.dk</title>
<path fill="none" stroke="#00688b" stroke-width="8" stroke-opacity="0.858824" d="M663.42,-603.29C630.64,-588.83 584.29,-568.39 551.52,-553.93"/>
<text xml:space="preserve" text-anchor="middle" x="628.69" y="-574.35" font-family="Arial" font-size="12.00"> 95 </text>
</g>
<!-- 49699333+dependabot[bot]@users.noreply.github.com -->
<g id="node9" class="node">
<title>49699333+dependabot[bot]@users.noreply.github.com</title>
<polygon fill="grey" stroke="white" points="1020.5,-122.25 665.5,-122.25 665.5,-86.25 1020.5,-86.25 1020.5,-122.25"/>
<text xml:space="preserve" text-anchor="middle" x="843" y="-99.58" font-family="Tahoma" font-size="14.00">49699333+dependabot[bot]@users.noreply.github.com</text>
</g>
<!-- mircea.lungu@gmail.com&#45;&#45;49699333+dependabot[bot]@users.noreply.github.com -->
<g id="edge29" class="edge">
<title>mircea.lungu@gmail.com&#45;&#45;49699333+dependabot[bot]@users.noreply.github.com</title>
<path fill="none" stroke="#00688b" stroke-opacity="0.298039" d="M789.12,-607.88C812.13,-602.69 836.54,-595.54 858,-585.75 891.62,-570.41 925,-573.46 925,-536.5 925,-536.5 925,-536.5 925,-189.5 925,-160.11 899.05,-137.12 876.35,-122.64"/>
<text xml:space="preserve" text-anchor="middle" x="931.38" y="-358.73" font-family="Arial" font-size="12.00"> 2 </text>
</g>
<!-- kalny.zalan7@gmail.com -->
<g id="node4" class="node">
<title>kalny.zalan7@gmail.com</title>
<polygon fill="grey" stroke="white" points="667.38,-381 500.62,-381 500.62,-345 667.38,-345 667.38,-381"/>
<text xml:space="preserve" text-anchor="middle" x="584" y="-358.32" font-family="Tahoma" font-size="14.00">kalny.zalan7@gmail.com</text>
</g>
<!-- gabortodor@gmail.com&#45;&#45;kalny.zalan7@gmail.com -->
<g id="edge4" class="edge">
<title>gabortodor@gmail.com&#45;&#45;kalny.zalan7@gmail.com</title>
<path fill="none" stroke="#00688b" stroke-width="6" stroke-opacity="0.717647" d="M384,-430.84C396.61,-420.17 414.01,-407.05 431.5,-399 452.97,-389.12 477.45,-381.91 500.43,-376.7"/>
<text xml:space="preserve" text-anchor="middle" x="441.25" y="-401.85" font-family="Arial" font-size="12.00"> 73 </text>
</g>
<!-- 63254940+gabortodor@users.noreply.github.com -->
<g id="node5" class="node">
<title>63254940+gabortodor@users.noreply.github.com</title>
<polygon fill="grey" stroke="white" points="662.25,-36 341.75,-36 341.75,0 662.25,0 662.25,-36"/>
<text xml:space="preserve" text-anchor="middle" x="502" y="-13.32" font-family="Tahoma" font-size="14.00">63254940+gabortodor@users.noreply.github.com</text>
</g>
<!-- gabortodor@gmail.com&#45;&#45;63254940+gabortodor@users.noreply.github.com -->
<g id="edge5" class="edge">
<title>gabortodor@gmail.com&#45;&#45;63254940+gabortodor@users.noreply.github.com</title>
<path fill="none" stroke="#00688b" stroke-width="5" stroke-opacity="0.647059" d="M299.65,-430.88C271.11,-420.45 239.17,-404.51 217,-381 122.68,-280.95 31.78,-189.14 123,-86.25 152.2,-53.31 251.73,-36.46 341.46,-27.87"/>
<text xml:space="preserve" text-anchor="middle" x="112.91" y="-229.35" font-family="Arial" font-size="12.00"> 60 </text>
</g>
<!-- 72095082+klnyzzz33@users.noreply.github.com -->
<g id="node7" class="node">
<title>72095082+klnyzzz33@users.noreply.github.com</title>
<polygon fill="grey" stroke="white" points="526,-294.75 216,-294.75 216,-258.75 526,-258.75 526,-294.75"/>
<text xml:space="preserve" text-anchor="middle" x="371" y="-272.07" font-family="Tahoma" font-size="14.00">72095082+klnyzzz33@users.noreply.github.com</text>
</g>
<!-- gabortodor@gmail.com&#45;&#45;72095082+klnyzzz33@users.noreply.github.com -->
<g id="edge17" class="edge">
<title>gabortodor@gmail.com&#45;&#45;72095082+klnyzzz33@users.noreply.github.com</title>
<path fill="none" stroke="#00688b" stroke-width="2" stroke-opacity="0.439216" d="M365.61,-430.96C366.76,-398.28 369.24,-327.8 370.39,-295.08"/>
<text xml:space="preserve" text-anchor="middle" x="378.35" y="-358.73" font-family="Arial" font-size="12.00"> 33 </text>
</g>
<!-- 98952123+xxpinkmagicxx@users.noreply.github.com -->
<g id="node8" class="node">
<title>98952123+xxpinkmagicxx@users.noreply.github.com</title>
<polygon fill="grey" stroke="white" points="473.75,-122.25 132.25,-122.25 132.25,-86.25 473.75,-86.25 473.75,-122.25"/>
<text xml:space="preserve" text-anchor="middle" x="303" y="-99.58" font-family="Tahoma" font-size="14.00">98952123+xxpinkmagicxx@users.noreply.github.com</text>
</g>
<!-- gabortodor@gmail.com&#45;&#45;98952123+xxpinkmagicxx@users.noreply.github.com -->
<g id="edge18" class="edge">
<title>gabortodor@gmail.com&#45;&#45;98952123+xxpinkmagicxx@users.noreply.github.com</title>
<path fill="none" stroke="#00688b" stroke-width="2" stroke-opacity="0.439216" d="M331.11,-430.94C288.39,-406.96 216.98,-359.22 187.5,-294.75 156.82,-227.65 236.67,-154.9 278.86,-122.5"/>
<text xml:space="preserve" text-anchor="middle" x="197.25" y="-272.48" font-family="Arial" font-size="12.00"> 30 </text>
</g>
<!-- gabortodor@gmail.com&#45;&#45;49699333+dependabot[bot]@users.noreply.github.com -->
<g id="edge33" class="edge">
<title>gabortodor@gmail.com&#45;&#45;49699333+dependabot[bot]@users.noreply.github.com</title>
<path fill="none" stroke="#00688b" stroke-opacity="0.298039" d="M445.33,-440.82C512.58,-434.07 603.01,-423.62 638,-413.25 669.69,-403.86 680.2,-402.85 705,-381 744.7,-346.03 801.68,-231.88 831,-154.5 834.93,-144.13 837.9,-132.04 839.9,-122.43"/>
<text xml:space="preserve" text-anchor="middle" x="791.01" y="-272.48" font-family="Arial" font-size="12.00"> 1 </text>
</g>
<!-- nicra@itu.dk&#45;&#45;gabortodor@gmail.com -->
<g id="edge11" class="edge">
<title>nicra@itu.dk&#45;&#45;gabortodor@gmail.com</title>
<path fill="none" stroke="#00688b" stroke-width="4" stroke-opacity="0.576471" d="M473.5,-517.1C462.37,-511.75 450.31,-505.65 439.5,-499.5 422.25,-489.69 403.62,-477.38 389.31,-467.52"/>
<text xml:space="preserve" text-anchor="middle" x="449.25" y="-488.1" font-family="Arial" font-size="12.00"> 53 </text>
</g>
<!-- nicra@itu.dk&#45;&#45;kalny.zalan7@gmail.com -->
<g id="edge12" class="edge">
<title>nicra@itu.dk&#45;&#45;kalny.zalan7@gmail.com</title>
<path fill="none" stroke="#00688b" stroke-width="4" stroke-opacity="0.576471" d="M519.3,-517.21C533.1,-484.53 562.87,-414.05 576.68,-381.33"/>
<text xml:space="preserve" text-anchor="middle" x="564.91" y="-444.98" font-family="Arial" font-size="12.00"> 50 </text>
</g>
<!-- nicra@itu.dk&#45;&#45;63254940+gabortodor@users.noreply.github.com -->
<g id="edge15" class="edge">
<title>nicra@itu.dk&#45;&#45;63254940+gabortodor@users.noreply.github.com</title>
<path fill="none" stroke="#00688b" stroke-width="3" stroke-opacity="0.509804" d="M465.69,-518.62C464.12,-518.22 462.55,-517.85 461,-517.5 384.1,-500.32 168.64,-519.88 110,-467.25 30.2,-395.62 46,-341.86 46,-234.62 46,-234.62 46,-234.62 46,-103.25 46,-54.11 97.77,-67.57 145,-54 207.85,-35.95 279.2,-26.82 341.51,-22.33"/>
<text xml:space="preserve" text-anchor="middle" x="55.5" y="-272.48" font-family="Arial" font-size="12.00"> 44 </text>
</g>
<!-- nickras2001@gmail.com -->
<g id="node6" class="node">
<title>nickras2001@gmail.com</title>
<polygon fill="grey" stroke="white" points="762.25,-208.5 597.75,-208.5 597.75,-172.5 762.25,-172.5 762.25,-208.5"/>
<text xml:space="preserve" text-anchor="middle" x="680" y="-185.82" font-family="Tahoma" font-size="14.00">nickras2001@gmail.com</text>
</g>
<!-- nicra@itu.dk&#45;&#45;nickras2001@gmail.com -->
<g id="edge14" class="edge">
<title>nicra@itu.dk&#45;&#45;nickras2001@gmail.com</title>
<path fill="none" stroke="#00688b" stroke-width="4" stroke-opacity="0.576471" d="M558.11,-525.12C613.07,-511.21 702.55,-479.3 743,-413.25 786.53,-342.18 773.78,-294.79 726,-226.5 721.28,-219.76 714.87,-213.74 708.33,-208.68"/>
<text xml:space="preserve" text-anchor="middle" x="778.62" y="-358.73" font-family="Arial" font-size="12.00"> 48 </text>
</g>
<!-- nicra@itu.dk&#45;&#45;72095082+klnyzzz33@users.noreply.github.com -->
<g id="edge27" class="edge">
<title>nicra@itu.dk&#45;&#45;72095082+klnyzzz33@users.noreply.github.com</title>
<path fill="none" stroke="#00688b" stroke-opacity="0.368627" d="M505.33,-517.39C494.92,-491.27 473.64,-440.13 451,-399 429.72,-360.33 400.15,-317.87 383.57,-294.87"/>
<text xml:space="preserve" text-anchor="middle" x="468.04" y="-401.85" font-family="Arial" font-size="12.00"> 19 </text>
</g>
<!-- nicra@itu.dk&#45;&#45;98952123+xxpinkmagicxx@users.noreply.github.com -->
<g id="edge28" class="edge">
<title>nicra@itu.dk&#45;&#45;98952123+xxpinkmagicxx@users.noreply.github.com</title>
<path fill="none" stroke="#00688b" stroke-opacity="0.368627" d="M465.89,-519C464.24,-518.49 462.61,-517.99 461,-517.5 328.09,-477.33 242.9,-504.78 180,-381 137.92,-298.2 141.87,-249.36 194,-172.5 209.29,-149.96 234.91,-133.59 257.46,-122.65"/>
<text xml:space="preserve" text-anchor="middle" x="167.55" y="-315.6" font-family="Arial" font-size="12.00"> 19 </text>
</g>
<!-- nicra@itu.dk&#45;&#45;49699333+dependabot[bot]@users.noreply.github.com -->
<g id="edge31" class="edge">
<title>nicra@itu.dk&#45;&#45;49699333+dependabot[bot]@users.noreply.github.com</title>
<path fill="none" stroke="#00688b" stroke-opacity="0.298039" d="M557.97,-530.72C605.03,-524.61 677.78,-508.69 725,-467.25 837.14,-368.83 829.27,-302.64 847,-154.5 848.26,-143.94 847.37,-132.05 846.1,-122.6"/>
<text xml:space="preserve" text-anchor="middle" x="832.23" y="-315.6" font-family="Arial" font-size="12.00"> 1 </text>
</g>
<!-- kalny.zalan7@gmail.com&#45;&#45;mircea.lungu@gmail.com -->
<g id="edge3" class="edge">
<title>kalny.zalan7@gmail.com&#45;&#45;mircea.lungu@gmail.com</title>
<path fill="none" stroke="#00688b" stroke-width="6" stroke-opacity="0.717647" d="M591.96,-381.17C613.6,-427.85 673.33,-556.73 695.01,-603.51"/>
<text xml:space="preserve" text-anchor="middle" x="656" y="-488.1" font-family="Arial" font-size="12.00"> 74 </text>
</g>
<!-- kalny.zalan7@gmail.com&#45;&#45;63254940+gabortodor@users.noreply.github.com -->
<g id="edge13" class="edge">
<title>kalny.zalan7@gmail.com&#45;&#45;63254940+gabortodor@users.noreply.github.com</title>
<path fill="none" stroke="#00688b" stroke-width="4" stroke-opacity="0.576471" d="M585.39,-344.58C587,-318.48 588.24,-267.87 578,-226.5 575.87,-217.91 572.88,-216.68 569.5,-208.5 543.77,-146.2 518.47,-70.13 507.58,-36.46"/>
<text xml:space="preserve" text-anchor="middle" x="579.25" y="-186.22" font-family="Arial" font-size="12.00"> 50 </text>
</g>
<!-- kalny.zalan7@gmail.com&#45;&#45;nickras2001@gmail.com -->
<g id="edge9" class="edge">
<title>kalny.zalan7@gmail.com&#45;&#45;nickras2001@gmail.com</title>
<path fill="none" stroke="#00688b" stroke-width="4" stroke-opacity="0.576471" d="M595.18,-344.68C598.71,-339.08 602.59,-332.82 606,-327 630.55,-285.15 657.38,-234.75 670.99,-208.8"/>
<text xml:space="preserve" text-anchor="middle" x="653.62" y="-272.48" font-family="Arial" font-size="12.00"> 55 </text>
</g>
<!-- kalny.zalan7@gmail.com&#45;&#45;72095082+klnyzzz33@users.noreply.github.com -->
<g id="edge19" class="edge">
<title>kalny.zalan7@gmail.com&#45;&#45;72095082+klnyzzz33@users.noreply.github.com</title>
<path fill="none" stroke="#00688b" stroke-width="2" stroke-opacity="0.439216" d="M553.2,-344.59C534.45,-334.45 509.79,-321.89 487,-312.75 470.8,-306.25 452.9,-300.29 436.12,-295.19"/>
<text xml:space="preserve" text-anchor="middle" x="526.79" y="-315.6" font-family="Arial" font-size="12.00"> 30 </text>
</g>
<!-- kalny.zalan7@gmail.com&#45;&#45;98952123+xxpinkmagicxx@users.noreply.github.com -->
<g id="edge24" class="edge">
<title>kalny.zalan7@gmail.com&#45;&#45;98952123+xxpinkmagicxx@users.noreply.github.com</title>
<path fill="none" stroke="#00688b" stroke-width="2" stroke-opacity="0.439216" d="M578.98,-344.65C571.97,-322.71 557.5,-284.68 535,-258.75 527.07,-249.61 389.25,-160.63 329.87,-122.48"/>
<text xml:space="preserve" text-anchor="middle" x="520.22" y="-229.35" font-family="Arial" font-size="12.00"> 26 </text>
</g>
<!-- kalny.zalan7@gmail.com&#45;&#45;49699333+dependabot[bot]@users.noreply.github.com -->
<g id="edge30" class="edge">
<title>kalny.zalan7@gmail.com&#45;&#45;49699333+dependabot[bot]@users.noreply.github.com</title>
<path fill="none" stroke="#00688b" stroke-opacity="0.298039" d="M609.49,-344.6C647.36,-318.02 719.53,-264.45 771,-208.5 796.3,-181 819.93,-144.17 832.83,-122.74"/>
<text xml:space="preserve" text-anchor="middle" x="759.91" y="-229.35" font-family="Arial" font-size="12.00"> 1 </text>
</g>
<!-- 63254940+gabortodor@users.noreply.github.com&#45;&#45;mircea.lungu@gmail.com -->
<g id="edge8" class="edge">
<title>63254940+gabortodor@users.noreply.github.com&#45;&#45;mircea.lungu@gmail.com</title>
<path fill="none" stroke="#00688b" stroke-width="5" stroke-opacity="0.647059" d="M662.42,-28.5C823.83,-40.29 1049,-63.8 1049,-103.25 1049,-536.5 1049,-536.5 1049,-536.5 1049,-589.82 891.9,-609.54 789.42,-616.73"/>
<text xml:space="preserve" text-anchor="middle" x="1058.75" y="-315.6" font-family="Arial" font-size="12.00"> 58 </text>
</g>
<!-- nickras2001@gmail.com&#45;&#45;mircea.lungu@gmail.com -->
<g id="edge7" class="edge">
<title>nickras2001@gmail.com&#45;&#45;mircea.lungu@gmail.com</title>
<path fill="none" stroke="#00688b" stroke-width="5" stroke-opacity="0.647059" d="M718.92,-208.88C727.98,-213.87 737.24,-219.8 745,-226.5 781.19,-257.76 865,-357.3 865,-405.12 865,-536.5 865,-536.5 865,-536.5 865,-575.33 827.91,-596.29 789.22,-607.59"/>
<text xml:space="preserve" text-anchor="middle" x="874.75" y="-401.85" font-family="Arial" font-size="12.00"> 59 </text>
</g>
<!-- nickras2001@gmail.com&#45;&#45;gabortodor@gmail.com -->
<g id="edge6" class="edge">
<title>nickras2001@gmail.com&#45;&#45;gabortodor@gmail.com</title>
<path fill="none" stroke="#00688b" stroke-width="5" stroke-opacity="0.647059" d="M698.96,-208.76C703.44,-213.98 707.61,-220.04 710,-226.5 734.39,-292.44 726.33,-331.91 676,-381 643.72,-412.48 526.14,-431.16 445.18,-440.56"/>
<text xml:space="preserve" text-anchor="middle" x="729.98" y="-315.6" font-family="Arial" font-size="12.00"> 60 </text>
</g>
<!-- nickras2001@gmail.com&#45;&#45;63254940+gabortodor@users.noreply.github.com -->
<g id="edge10" class="edge">
<title>nickras2001@gmail.com&#45;&#45;63254940+gabortodor@users.noreply.github.com</title>
<path fill="none" stroke="#00688b" stroke-width="4" stroke-opacity="0.576471" d="M669.98,-172.03C653.19,-144.03 616.97,-88.73 574,-54 565.57,-47.19 555.59,-41.27 545.79,-36.35"/>
<text xml:space="preserve" text-anchor="middle" x="645.28" y="-99.97" font-family="Arial" font-size="12.00"> 54 </text>
</g>
<!-- nickras2001@gmail.com&#45;&#45;98952123+xxpinkmagicxx@users.noreply.github.com -->
<g id="edge23" class="edge">
<title>nickras2001@gmail.com&#45;&#45;98952123+xxpinkmagicxx@users.noreply.github.com</title>
<path fill="none" stroke="#00688b" stroke-width="2" stroke-opacity="0.439216" d="M631.66,-172.06C601.35,-161.65 561.27,-148.82 525,-140.25 496.14,-133.43 464.85,-127.58 435.12,-122.71"/>
<text xml:space="preserve" text-anchor="middle" x="586.5" y="-143.1" font-family="Arial" font-size="12.00"> 27 </text>
</g>
<!-- nickras2001@gmail.com&#45;&#45;49699333+dependabot[bot]@users.noreply.github.com -->
<g id="edge32" class="edge">
<title>nickras2001@gmail.com&#45;&#45;49699333+dependabot[bot]@users.noreply.github.com</title>
<path fill="none" stroke="#00688b" stroke-opacity="0.298039" d="M707.66,-172C723.64,-162.18 744.27,-149.98 763.25,-140.25 775.22,-134.11 788.51,-128.01 800.75,-122.66"/>
<text xml:space="preserve" text-anchor="middle" x="769.62" y="-143.1" font-family="Arial" font-size="12.00"> 1 </text>
</g>
<!-- 72095082+klnyzzz33@users.noreply.github.com&#45;&#45;mircea.lungu@gmail.com -->
<g id="edge16" class="edge">
<title>72095082+klnyzzz33@users.noreply.github.com&#45;&#45;mircea.lungu@gmail.com</title>
<path fill="none" stroke="#00688b" stroke-width="3" stroke-opacity="0.509804" d="M255.35,-295.24C194.34,-311.74 132,-343.65 132,-405.12 132,-536.5 132,-536.5 132,-536.5 132,-584.88 456.96,-608.21 616.59,-616.76"/>
<text xml:space="preserve" text-anchor="middle" x="141.75" y="-444.98" font-family="Arial" font-size="12.00"> 34 </text>
</g>
<!-- 72095082+klnyzzz33@users.noreply.github.com&#45;&#45;63254940+gabortodor@users.noreply.github.com -->
<g id="edge20" class="edge">
<title>72095082+klnyzzz33@users.noreply.github.com&#45;&#45;63254940+gabortodor@users.noreply.github.com</title>
<path fill="none" stroke="#00688b" stroke-width="2" stroke-opacity="0.439216" d="M387.72,-258.51C412.68,-231.72 459.28,-177.41 483,-122.25 495.24,-93.79 499.6,-57.59 501.15,-36.49"/>
<text xml:space="preserve" text-anchor="middle" x="483.38" y="-143.1" font-family="Arial" font-size="12.00"> 28 </text>
</g>
<!-- 72095082+klnyzzz33@users.noreply.github.com&#45;&#45;nickras2001@gmail.com -->
<g id="edge22" class="edge">
<title>72095082+klnyzzz33@users.noreply.github.com&#45;&#45;nickras2001@gmail.com</title>
<path fill="none" stroke="#00688b" stroke-width="2" stroke-opacity="0.439216" d="M462.12,-258.29C485.97,-253.18 511.56,-247.21 535,-240.75 568.19,-231.61 604.91,-219.11 633.09,-208.99"/>
<text xml:space="preserve" text-anchor="middle" x="589.06" y="-229.35" font-family="Arial" font-size="12.00"> 27 </text>
</g>
<!-- 72095082+klnyzzz33@users.noreply.github.com&#45;&#45;98952123+xxpinkmagicxx@users.noreply.github.com -->
<g id="edge25" class="edge">
<title>72095082+klnyzzz33@users.noreply.github.com&#45;&#45;98952123+xxpinkmagicxx@users.noreply.github.com</title>
<path fill="none" stroke="#00688b" stroke-width="2" stroke-opacity="0.439216" d="M364.11,-258.46C351.07,-225.78 322.96,-155.3 309.91,-122.58"/>
<text xml:space="preserve" text-anchor="middle" x="353.51" y="-186.22" font-family="Arial" font-size="12.00"> 24 </text>
</g>
<!-- 98952123+xxpinkmagicxx@users.noreply.github.com&#45;&#45;mircea.lungu@gmail.com -->
<g id="edge26" class="edge">
<title>98952123+xxpinkmagicxx@users.noreply.github.com&#45;&#45;mircea.lungu@gmail.com</title>
<path fill="none" stroke="#00688b" stroke-width="2" stroke-opacity="0.439216" d="M228.88,-122.72C139.18,-148.78 0,-207.2 0,-318.88 0,-536.5 0,-536.5 0,-536.5 0,-597.96 429.08,-614.81 616.8,-619.24"/>
<text xml:space="preserve" text-anchor="middle" x="9.75" y="-358.73" font-family="Arial" font-size="12.00"> 23 </text>
</g>
<!-- 98952123+xxpinkmagicxx@users.noreply.github.com&#45;&#45;63254940+gabortodor@users.noreply.github.com -->
<g id="edge21" class="edge">
<title>98952123+xxpinkmagicxx@users.noreply.github.com&#45;&#45;63254940+gabortodor@users.noreply.github.com</title>
<path fill="none" stroke="#00688b" stroke-width="2" stroke-opacity="0.439216" d="M344.23,-85.79C378.39,-71.33 426.68,-50.89 460.82,-36.43"/>
<text xml:space="preserve" text-anchor="middle" x="424.16" y="-56.85" font-family="Arial" font-size="12.00"> 27 </text>
</g>
</g>
</svg>
